<svg width="36" height="36" viewBox="0 0 36 36" fill="none" xmlns="http://www.w3.org/2000/svg">
<circle cx="18" cy="18" r="18" fill="white"/>
<path fill-rule="evenodd" clip-rule="evenodd" d="M18 8C18.3787 8 18.6857 8.31235 18.6857 8.69767V9.6279C18.6857 9.75634 18.788 9.86046 18.9143 9.86046C19.293 9.86046 19.6 10.1728 19.6 10.5581C19.6 10.9434 19.293 11.2558 18.9143 11.2558C18.788 11.2558 18.6857 11.3599 18.6857 11.4884V24.5116C18.6857 24.64 18.788 24.7442 18.9143 24.7442C19.293 24.7442 19.6 25.0565 19.6 25.4419C19.6 25.8272 19.293 26.1395 18.9143 26.1395C18.788 26.1395 18.6857 26.2436 18.6857 26.3721V27.3023C18.6857 27.6876 18.3787 28 18 28C17.6213 28 17.3143 27.6876 17.3143 27.3023V26.6047C17.3143 26.3477 17.1096 26.1395 16.8571 26.1395H12.5143C11.1257 26.1395 10 24.9941 10 23.5814V12.4186C10 11.0058 11.1257 9.86046 12.5143 9.86046H16.8571C17.1096 9.86046 17.3143 9.65222 17.3143 9.39535V8.69767C17.3143 8.31235 17.6213 8 18 8ZM17.3143 11.7209C17.3143 11.464 17.1096 11.2558 16.8571 11.2558H12.5143C11.8831 11.2558 11.3714 11.7764 11.3714 12.4186V23.5814C11.3714 24.2235 11.8831 24.7442 12.5143 24.7442H16.8571C17.1096 24.7442 17.3143 24.5359 17.3143 24.2791V11.7209ZM21.8857 10.5581C21.8857 10.1728 22.1927 9.86046 22.5714 9.86046H23.4857C24.8743 9.86046 26 11.0058 26 12.4186V13.3488C26 13.7341 25.693 14.0465 25.3143 14.0465C24.9356 14.0465 24.6286 13.7341 24.6286 13.3488V12.4186C24.6286 11.7764 24.1169 11.2558 23.4857 11.2558H22.5714C22.1927 11.2558 21.8857 10.9434 21.8857 10.5581ZM25.3143 16.3721C25.693 16.3721 26 16.6844 26 17.0698V18.9302C26 19.3156 25.693 19.6279 25.3143 19.6279C24.9356 19.6279 24.6286 19.3156 24.6286 18.9302V17.0698C24.6286 16.6844 24.9356 16.3721 25.3143 16.3721ZM25.3143 21.9535C25.693 21.9535 26 22.2658 26 22.6512V23.5814C26 24.9941 24.8743 26.1395 23.4857 26.1395H22.5714C22.1927 26.1395 21.8857 25.8272 21.8857 25.4419C21.8857 25.0565 22.1927 24.7442 22.5714 24.7442H23.4857C24.1169 24.7442 24.6286 24.2235 24.6286 23.5814V22.6512C24.6286 22.2658 24.9356 21.9535 25.3143 21.9535Z" fill="#181D27"/>
</svg>
