<svg width="60" height="60" viewBox="0 0 60 60" fill="none" xmlns="http://www.w3.org/2000/svg">
<path d="M42.1875 26.25C33.3937 26.25 26.25 33.3937 26.25 42.1875C26.25 50.9813 33.3937 58.125 42.1875 58.125C50.9813 58.125 58.125 50.9813 58.125 42.1875C58.125 33.3937 50.9813 26.25 42.1875 26.25ZM49.7438 39.6187L42.0375 47.4C41.6813 47.7563 41.2125 47.9625 40.7062 47.9625C40.2 47.9625 39.7312 47.775 39.375 47.4188L34.6312 42.675C33.9 41.9438 33.9 40.7625 34.6312 40.0313C35.3625 39.3 36.5437 39.3 37.275 40.0313L40.6875 43.4438L47.0625 37.0125C47.7938 36.2812 48.975 36.2625 49.7063 37.0125C50.4375 37.7437 50.4563 38.925 49.7063 39.6562L49.7438 39.6187Z" fill="#717680"/>
<path d="M23.0617 47.2125C14.118 41.2688 9.37422 32.7938 9.37422 22.725V18.2438C9.37422 17.3063 10.068 16.5188 10.9867 16.3875C15.7867 15.7313 19.893 14.325 23.2117 12.225C23.8117 11.85 24.5805 11.85 25.1992 12.225C28.6117 14.325 32.8305 15.7313 37.7617 16.4063C38.6805 16.5375 39.3742 17.325 39.3742 18.2625V22.725C40.293 22.5938 41.2305 22.5 42.1867 22.5C43.7992 22.5 45.3555 22.725 46.8555 23.0813C46.8555 22.9688 46.8555 22.8563 46.8555 22.725V11.25C46.8555 10.2188 46.0117 9.37505 44.9805 9.37505C29.9805 9.37505 25.7617 2.9438 25.6867 2.7938C25.3492 2.21255 24.6742 1.91255 24.0367 1.8938C23.3617 1.8938 22.7242 2.28755 22.4055 2.88755C22.368 2.9438 18.7305 9.37505 3.73047 9.37505C2.69922 9.37505 1.85547 10.2188 1.85547 11.25V22.725C1.85547 36.9188 9.43047 48.75 23.193 56.025C23.4742 56.175 23.7742 56.25 24.0742 56.25C24.3742 56.25 24.6742 56.175 24.9555 56.025C25.6867 55.6313 26.3992 55.2188 27.093 54.8063C25.2742 52.6313 23.9242 50.0813 23.1742 47.2688C23.1367 47.25 23.0805 47.2313 23.043 47.2125H23.0617Z" fill="#717680"/>
<path d="M13.125 19.8375V22.725C13.125 30.5625 16.3125 37.05 22.5 42.1125C22.5375 33.6187 27.975 26.3812 35.5687 23.6625C35.5687 23.3437 35.625 23.0437 35.625 22.725V19.875C31.3125 19.125 27.4875 17.8312 24.2438 16.0125C21.0563 17.8312 17.325 19.125 13.125 19.8562V19.8375Z" fill="#717680"/>
</svg>
