<svg width="60" height="60" viewBox="0 0 60 60" fill="none" xmlns="http://www.w3.org/2000/svg">
<g clip-path="url(#clip0_1_2442)">
<path d="M37.1636 18.1479L32.7903 17.5242L30.8375 13.6415C30.7595 13.4863 30.6399 13.3558 30.492 13.2646C30.3441 13.1734 30.1738 13.1251 30.0001 13.1251C29.8263 13.1251 29.656 13.1734 29.5081 13.2646C29.3602 13.3558 29.2406 13.4863 29.1626 13.6415L27.2098 17.5242L22.8365 18.1479C22.6624 18.1727 22.4987 18.246 22.3642 18.3594C22.2298 18.4729 22.1299 18.6218 22.0762 18.7893C22.0224 18.9568 22.0168 19.136 22.0601 19.3065C22.1033 19.4771 22.1937 19.6319 22.3208 19.7535L25.4748 22.7706L24.731 27.0262C24.7009 27.1981 24.7194 27.3751 24.7845 27.5371C24.8496 27.6991 24.9586 27.8397 25.0993 27.9431C25.24 28.0465 25.4067 28.1085 25.5808 28.1222C25.7548 28.1359 25.9292 28.1007 26.0844 28.0207L30 26.0004L33.9158 28.0207C34.0714 28.0989 34.2455 28.133 34.4191 28.1193C34.5928 28.1056 34.7594 28.0447 34.9009 27.9431C35.0415 27.8397 35.1505 27.699 35.2155 27.5371C35.2806 27.3751 35.2992 27.1981 35.2691 27.0262L34.5253 22.7706L37.6793 19.7535C37.8064 19.632 37.8968 19.4771 37.9401 19.3066C37.9833 19.136 37.9778 18.9568 37.924 18.7893C37.8702 18.6218 37.7703 18.4729 37.6359 18.3594C37.5014 18.246 37.3377 18.1727 37.1636 18.1479Z" fill="#717680"/>
<path d="M33.7416 42.1551C34.6403 41.9962 35.2991 41.2818 35.8825 40.6042C36.1385 40.2495 36.4607 39.9477 36.8314 39.7155C37.2788 39.6525 37.7341 39.6772 38.172 39.7882C39.0118 39.9267 39.9646 40.0844 40.7808 39.6161C41.6071 39.1423 41.9469 38.2378 42.2466 37.4399C42.3653 37.016 42.566 36.6194 42.8373 36.2726C43.2328 36.0648 43.665 35.9359 44.1097 35.8932C44.9506 35.7389 45.9036 35.5643 46.515 34.8426C47.1272 34.1203 47.1364 33.1576 47.1444 32.3082C47.1103 31.8673 47.1635 31.4241 47.301 31.0038C47.599 30.6796 47.9569 30.4162 48.355 30.2279C49.0968 29.796 49.9375 29.3067 50.2664 28.4117C50.5902 27.5296 50.2671 26.6258 49.9819 25.8284C49.7954 25.422 49.6913 24.9827 49.6756 24.5359C49.8421 24.1379 50.0836 23.7757 50.387 23.4691C50.9379 22.8074 51.5625 22.0571 51.5625 21.0938C51.5625 20.1304 50.9379 19.3801 50.387 18.7184C50.0836 18.4116 49.842 18.0494 49.6754 17.6514C49.6913 17.2045 49.7954 16.7653 49.9818 16.3589C50.2668 15.5615 50.5902 14.6579 50.2663 13.7755C49.9374 12.8808 49.0965 12.3915 48.3547 11.9596C47.9568 11.7715 47.599 11.5082 47.301 11.1844C47.1637 10.764 47.1106 10.3208 47.1446 9.87996C47.1366 9.03058 47.1275 8.06767 46.5152 7.34512C45.9039 6.62369 44.9508 6.44882 44.1101 6.29456C43.6653 6.25179 43.2331 6.1229 42.8376 5.91507C42.5663 5.56838 42.3657 5.17188 42.247 4.74801C41.9472 3.95013 41.6075 3.04559 40.781 2.57161C39.9651 2.10309 39.0127 2.26078 38.1722 2.39949C37.7344 2.51053 37.279 2.53518 36.8317 2.47204C36.4609 2.23989 36.1385 1.93808 35.8825 1.58329C35.3227 0.93304 34.6884 0.196038 33.742 0.031704C32.8235 -0.127826 31.9883 0.340924 31.2522 0.754282C30.8739 1.01175 30.4483 1.19161 30 1.28346C29.5517 1.19161 29.1261 1.01175 28.7478 0.754282C28.0117 0.341154 27.1797 -0.126912 26.2582 0.031704C25.3116 0.196038 24.6773 0.93304 24.1175 1.58329C23.8615 1.93801 23.5393 2.23981 23.1686 2.47204C22.7213 2.53579 22.2658 2.51106 21.828 2.39926C20.988 2.26079 20.0359 2.10309 19.2192 2.57138C18.3929 3.04514 18.0531 3.94968 17.7534 4.74756C17.6347 5.17152 17.434 5.56809 17.1627 5.91486C16.7672 6.12269 16.335 6.25158 15.8903 6.29434C15.0494 6.44861 14.0964 6.62325 13.485 7.34491C12.8728 8.06726 12.8636 9.02991 12.8556 9.87929C12.8897 10.3202 12.8365 10.7634 12.699 11.1837C12.401 11.5079 12.0431 11.7714 11.645 11.9596C10.9032 12.3915 10.0625 12.8808 9.73363 13.7757C9.40976 14.6579 9.73294 15.5617 10.0181 16.3591C10.2046 16.7655 10.3087 17.2048 10.3244 17.6516C10.1579 18.0495 9.91636 18.4117 9.613 18.7184C9.06212 19.3801 8.4375 20.1304 8.4375 21.0938C8.4375 22.0571 9.06212 22.8074 9.61304 23.4691C9.91644 23.7758 10.158 24.1381 10.3246 24.5361C10.3087 24.9829 10.2046 25.4222 10.0182 25.8286C9.7332 26.626 9.40979 27.5296 9.73366 28.412C10.0626 29.3067 10.9035 29.796 11.6453 30.2279C12.0432 30.416 12.401 30.6792 12.699 31.0031C12.8363 31.4234 12.8894 31.8667 12.8554 32.3075C12.8634 33.1569 12.8725 34.1198 13.4848 34.8424C14.0961 35.5638 15.0492 35.7387 15.8899 35.8929C16.3347 35.9357 16.7669 36.0645 17.1625 36.2724C17.4337 36.6191 17.6343 37.0156 17.753 37.4395C18.0528 38.2374 18.3925 39.1419 19.219 39.6159C20.0351 40.0844 20.9873 39.9267 21.8278 39.788C22.2656 39.6765 22.721 39.6519 23.1683 39.7155C23.5391 39.9476 23.8615 40.2494 24.1175 40.6042C24.6773 41.2545 25.3116 41.9915 26.258 42.1558C27.176 42.3135 28.0114 41.8466 28.7478 41.4332C29.1261 41.1757 29.5517 40.9959 30 40.904C30.4483 40.9959 30.8739 41.1757 31.2522 41.4332C32.0065 41.8569 32.845 42.3136 33.7416 42.1551ZM30 33.2812C27.5895 33.2812 25.2332 32.5664 23.229 31.2272C21.2248 29.8881 19.6627 27.9846 18.7402 25.7576C17.8178 23.5307 17.5764 21.0802 18.0467 18.716C18.5169 16.3519 19.6777 14.1803 21.3821 12.4758C23.0866 10.7714 25.2582 9.61063 27.6223 9.14038C29.9865 8.67012 32.437 8.91147 34.664 9.83391C36.8909 10.7564 38.7944 12.3185 40.1335 14.3227C41.4727 16.3269 42.1875 18.6832 42.1875 21.0937C42.1875 24.326 40.9035 27.426 38.6179 29.7116C36.3323 31.9972 33.2323 33.2812 30 33.2812Z" fill="#717680"/>
<path d="M25.9405 44.004C24.3292 43.724 23.3471 42.5833 22.6973 41.8284C22.6369 41.7584 22.5593 41.6682 22.4833 41.5824C22.3631 41.6 22.2368 41.6211 22.1345 41.638C21.6053 41.7378 21.0687 41.7936 20.5302 41.8049C19.7455 41.8187 18.9711 41.6246 18.2856 41.2423C16.875 40.4332 16.3472 39.0292 15.9981 38.1002C15.9661 38.0148 15.9251 37.9054 15.8837 37.8001C15.7672 37.7768 15.6457 37.7546 15.5521 37.7374C15.502 37.7282 15.4456 37.7172 15.393 37.7074L8.96461 55.0581C8.9047 55.2199 8.89058 55.395 8.9238 55.5643C8.95703 55.7335 9.03631 55.8904 9.15292 56.0175C9.26953 56.1446 9.41894 56.2371 9.58472 56.2847C9.75051 56.3324 9.92622 56.3334 10.0925 56.2876L15.9981 54.6617L19.4636 59.6009C19.5619 59.7408 19.6965 59.8513 19.8529 59.9202C20.0094 59.9892 20.1817 60.014 20.3512 59.9921C20.5208 59.9702 20.6811 59.9023 20.8149 59.7959C20.9487 59.6894 21.0508 59.5484 21.1102 59.3881L26.7917 44.0534C26.737 44.0555 26.6844 44.0623 26.6288 44.0623C26.3981 44.0623 26.1679 44.0428 25.9405 44.004Z" fill="#717680"/>
<path d="M44.6056 37.7075C44.5534 37.7172 44.4972 37.7282 44.4474 37.7374C44.3531 37.7545 44.2314 37.777 44.1146 37.8003C44.0732 37.9056 44.0322 38.0145 44.0004 38.0992C43.6514 39.0287 43.124 40.4331 41.7121 41.2429C41.0266 41.6248 40.2524 41.8187 39.4679 41.8048C38.9309 41.7937 38.3958 41.7382 37.868 41.6389C37.7638 41.6215 37.6359 41.6004 37.515 41.5828C37.4393 41.6682 37.3622 41.7577 37.3026 41.827C36.6934 42.5345 35.6748 43.7171 34.0667 44.0014C33.8365 44.0419 33.6033 44.0623 33.3695 44.0623C33.3143 44.0623 33.2618 44.0553 33.2074 44.053L33.207 44.0539L38.8883 59.388C38.9478 59.5483 39.0499 59.6893 39.1837 59.7958C39.3174 59.9023 39.4778 59.9701 39.6473 59.992C39.8169 60.0139 39.9892 59.9891 40.1456 59.9201C40.3021 59.8512 40.4367 59.7408 40.5349 59.6009L44.0004 54.6616L49.906 56.2876C50.0723 56.3334 50.2481 56.3323 50.4138 56.2847C50.5796 56.237 50.729 56.1445 50.8456 56.0174C50.9623 55.8903 51.0415 55.7335 51.0748 55.5642C51.108 55.395 51.0939 55.2198 51.034 55.0581L44.6056 37.7075Z" fill="#717680"/>
</g>
<defs>
<clipPath id="clip0_1_2442">
<rect width="60" height="60" fill="white"/>
</clipPath>
</defs>
</svg>
