<svg width="24" height="24" viewBox="0 0 24 24" fill="none" xmlns="http://www.w3.org/2000/svg">
<g clip-path="url(#clip0_1_3094)">
<path d="M5.625 9.67395H3.77255C4.08548 5.40833 7.65591 2.03333 12 2.03333C15.4375 2.03333 18.5481 4.19848 19.7402 7.42109C19.9199 7.90667 20.4591 8.15468 20.9448 7.97511C21.4304 7.79543 21.6784 7.25618 21.4988 6.77056C20.7883 4.84981 19.526 3.20618 17.8485 2.01734C16.1324 0.801169 14.11 0.158325 12 0.158325C9.29555 0.158325 6.75291 1.21151 4.84055 3.12387C2.95312 5.01129 1.90336 7.51273 1.87627 10.1777C0.755859 10.8269 0 12.0385 0 13.424V16.6115C0 18.6792 1.68225 20.3615 3.75 20.3615H5.625C6.14278 20.3615 6.5625 19.9417 6.5625 19.424V10.6115C6.5625 10.0937 6.14278 9.67395 5.625 9.67395ZM4.6875 18.4865H3.75C2.71613 18.4865 1.875 17.6453 1.875 16.6115V13.424C1.875 12.3901 2.71613 11.549 3.75 11.549H4.6875V18.4865Z" fill="#004DAA"/>
<path d="M20.25 9.67395H18.375C17.8572 9.67395 17.4375 10.0937 17.4375 10.6115V17.0333V19.424V20.4083C17.4375 20.9253 17.0169 21.3458 16.5 21.3458H13.6406V21.3755C13.3208 20.7988 12.7061 20.4083 12 20.4083C10.9645 20.4083 10.125 21.2478 10.125 22.2833C10.125 23.3188 10.9645 24.1583 12 24.1583C12.7061 24.1583 13.3208 23.7678 13.6406 23.1911V23.2208H16.5C18.0508 23.2208 19.3125 21.9591 19.3125 20.4083V20.3615H20.25C22.3177 20.3615 24 18.6792 24 16.6115V13.424C24 11.3562 22.3177 9.67395 20.25 9.67395ZM22.125 16.6115C22.125 17.6453 21.2839 18.4865 20.25 18.4865H19.3125V17.0333V11.549H20.25C21.2839 11.549 22.125 12.3901 22.125 13.424V16.6115Z" fill="#004DAA"/>
</g>
<defs>
<clipPath id="clip0_1_3094">
<rect width="24" height="24" fill="white"/>
</clipPath>
</defs>
</svg>
