<svg width="24" height="24" viewBox="0 0 24 24" fill="none" xmlns="http://www.w3.org/2000/svg">
<path fill-rule="evenodd" clip-rule="evenodd" d="M10.9172 19.431C11.7245 19.431 12.3798 20.0863 12.3798 20.8936C12.3798 21.7009 11.7245 22.3561 10.9172 22.3561C10.11 22.3561 9.45469 21.7009 9.45469 20.8936C9.45469 20.0863 10.11 19.431 10.9172 19.431ZM17.2787 19.431C18.086 19.431 18.7412 20.0863 18.7412 20.8936C18.7412 21.7009 18.086 22.3561 17.2787 22.3561C16.4714 22.3561 15.8161 21.7009 15.8161 20.8936C15.8161 20.0863 16.4714 19.431 17.2787 19.431ZM1.20597 4.82087H3.27215C3.67433 4.82087 4.02778 5.08923 4.13542 5.47759C4.13542 5.47759 4.13615 5.47759 4.13615 5.47832C4.83215 7.98378 6.33615 13.3976 7.03506 15.9125C7.36306 17.0943 8.43942 17.9118 9.66488 17.9118H18.4954C19.7485 17.9118 20.8409 17.0587 21.1441 15.8427C21.7594 13.3838 22.9812 8.49578 22.9812 8.49578C23.0489 8.2245 22.9878 7.9365 22.8154 7.71614C22.6431 7.49505 22.3791 7.36632 22.0991 7.36632H9.45469C8.95288 7.36632 8.5456 7.77359 8.5456 8.27541C8.5456 8.77723 8.95288 9.1845 9.45469 9.1845H20.9347L19.3798 15.4034C19.2787 15.8092 18.9136 16.0936 18.4954 16.0936H9.66488C9.25542 16.0936 8.89615 15.8201 8.78633 15.426C8.08742 12.911 6.58342 7.4965 5.88742 4.99105C5.56233 3.8165 4.49178 3.00269 3.27215 3.00269H1.20597C0.704148 3.00269 0.296875 3.40996 0.296875 3.91178C0.296875 4.41359 0.704148 4.82087 1.20597 4.82087Z" fill="white"/>
</svg>
