<svg width="60" height="60" viewBox="0 0 60 60" fill="none" xmlns="http://www.w3.org/2000/svg">
<path d="M25.6889 14.5219L10.7921 40.3125C10.1705 41.3891 10.002 42.6686 10.3238 43.8694C10.6455 45.0702 11.4311 46.094 12.5077 46.7156L26.7202 54.9281C26.4101 54.1562 26.251 53.3319 26.2514 52.5V22.7156C26.2499 20.0442 27.2851 17.4765 29.1389 15.5531L35.1202 9.375L30.6577 10.6313C28.5605 11.2366 26.7796 12.6311 25.6889 14.5219Z" fill="#717680"/>
<path d="M4.54822 31.4812C3.66945 32.3602 3.17578 33.5523 3.17578 34.7953C3.17578 36.0382 3.66945 37.2303 4.54822 38.1093L8.29822 41.8593C8.41803 40.9808 8.71462 40.1357 9.17009 39.375C11.3545 35.625 21.0107 18.8718 26.2513 9.87183C25.6232 10.3593 26.767 9.2812 4.54822 31.4812Z" fill="#717680"/>
<path d="M40.9766 36.5625H41.2484V32.8125H40.9766C40.4793 32.8125 40.0024 33.01 39.6507 33.3617C39.2991 33.7133 39.1016 34.1902 39.1016 34.6875C39.1016 35.1848 39.2991 35.6617 39.6507 36.0133C40.0024 36.365 40.4793 36.5625 40.9766 36.5625Z" fill="#717680"/>
<path d="M47.8125 2.69067C47.4353 4.89761 46.4848 6.96668 45.0563 8.69067C44.6194 8.24134 44.0969 7.88416 43.5196 7.64026C42.9423 7.39637 42.322 7.2707 41.6953 7.2707C41.0686 7.2707 40.4483 7.39637 39.871 7.64026C39.2937 7.88416 38.7712 8.24134 38.3344 8.69067L30.4875 16.875C28.9754 18.4438 28.1288 20.5368 28.125 22.7157V52.5C28.125 53.7433 28.6189 54.9355 29.4979 55.8146C30.377 56.6937 31.5693 57.1875 32.8125 57.1875H50.625C51.8682 57.1875 53.0605 56.6937 53.9396 55.8146C54.8186 54.9355 55.3125 53.7433 55.3125 52.5V22.7157C55.3087 20.5368 54.4621 18.4438 52.95 16.875L47.6906 11.4188C46.5153 12.6981 45.0801 13.7114 43.4813 14.3907C43.3661 14.7146 43.1641 15.0006 42.8973 15.2175C42.6306 15.4343 42.3093 15.5737 41.9687 15.6202C41.6281 15.6668 41.2812 15.6189 40.966 15.4816C40.6508 15.3444 40.3794 15.1231 40.1815 14.842C39.9836 14.5609 39.8668 14.2308 39.8438 13.8878C39.8208 13.5448 39.8926 13.2021 40.0513 12.8971C40.21 12.5921 40.4494 12.3367 40.7435 12.1586C41.0376 11.9806 41.375 11.8868 41.7188 11.8875C41.9788 11.8895 42.2356 11.9455 42.4729 12.052C42.7101 12.1585 42.9226 12.3132 43.0969 12.5063C43.6729 12.2479 44.2224 11.9339 44.7375 11.5688C45.3278 11.1253 45.8797 10.6329 46.3875 10.0969C48.1401 8.06424 49.2839 5.57846 49.6875 2.92505L47.8125 2.69067ZM40.9781 30.9375H41.25V28.6594H43.125V30.9375H43.3969C44.3914 30.9375 45.3453 31.3326 46.0485 32.0359C46.7518 32.7392 47.1469 33.693 47.1469 34.6875H45.2719C45.2719 34.1903 45.0743 33.7134 44.7227 33.3617C44.3711 33.0101 43.8942 32.8125 43.3969 32.8125H43.125V36.5625H43.3969C44.3914 36.5625 45.3453 36.9576 46.0485 37.6609C46.7518 38.3642 47.1469 39.318 47.1469 40.3125C47.1469 41.3071 46.7518 42.2609 46.0485 42.9642C45.3453 43.6675 44.3914 44.0625 43.3969 44.0625H43.125V46.3407H41.25V44.0625H40.9781C39.9836 44.0625 39.0297 43.6675 38.3265 42.9642C37.6232 42.2609 37.2281 41.3071 37.2281 40.3125H39.1031C39.1031 40.8098 39.3007 41.2867 39.6523 41.6384C40.0039 41.99 40.4808 42.1875 40.9781 42.1875H41.25V38.4375H40.9781C39.9836 38.4375 39.0297 38.0425 38.3265 37.3392C37.6232 36.6359 37.2281 35.6821 37.2281 34.6875C37.2281 33.693 37.6232 32.7392 38.3265 32.0359C39.0297 31.3326 39.9836 30.9375 40.9781 30.9375Z" fill="#717680"/>
<path d="M45.2719 40.3125C45.2719 39.8152 45.0743 39.3383 44.7227 38.9867C44.3711 38.635 43.8942 38.4375 43.3969 38.4375H43.125V42.1875H43.3969C43.8942 42.1875 44.3711 41.99 44.7227 41.6383C45.0743 41.2867 45.2719 40.8098 45.2719 40.3125Z" fill="#717680"/>
</svg>
