<svg width="20" height="21" viewBox="0 0 20 21" fill="none" xmlns="http://www.w3.org/2000/svg">
<g clip-path="url(#clip0_50_831)">
<path d="M16.4285 0.841797H3.57141C1.59994 0.844141 0.00234375 2.44174 0 4.41321V17.2703C0.00234375 19.2418 1.59994 20.8394 3.57141 20.8418H16.4285C18.4 20.8394 19.9976 19.2418 20 17.2703V4.41321C19.9976 2.44174 18.4 0.844141 16.4285 0.841797ZM13.5714 11.5561H10.7143V14.4132C10.7143 14.8077 10.3945 15.1275 9.99998 15.1275C9.60548 15.1275 9.28568 14.8077 9.28568 14.4132V11.5561H6.42857C6.03406 11.5561 5.71427 11.2363 5.71427 10.8418C5.71427 10.4473 6.03406 10.1275 6.42857 10.1275H9.28572V7.27036C9.28572 6.87586 9.60552 6.55606 10 6.55606C10.3945 6.55606 10.7143 6.87586 10.7143 7.27036V10.1275H13.5714C13.9659 10.1275 14.2857 10.4473 14.2857 10.8418C14.2857 11.2363 13.9659 11.5561 13.5714 11.5561Z" fill="#535862"/>
</g>
<defs>
<clipPath id="clip0_50_831">
<rect width="20" height="20" fill="white" transform="translate(0 0.841797)"/>
</clipPath>
</defs>
</svg>
