<svg width="60" height="60" viewBox="0 0 60 60" fill="none" xmlns="http://www.w3.org/2000/svg">
<path d="M54.7266 17.7024H51.0444C47.9127 10.2664 41.0168 4.86249 33.0779 3.83042C25.2107 2.78159 17.4807 5.80972 12.4236 11.9053C10.937 13.6975 9.75773 15.6458 8.8943 17.7024H5.27344C2.36555 17.7024 0 20.0679 0 22.9758V30.0071C0 32.915 2.36555 35.2805 5.27344 35.2805H12.4923L11.737 32.9751C9.53801 26.2596 10.7757 19.3983 15.1308 14.1507C19.4104 8.99218 25.9454 6.4396 32.6214 7.31511C39.6816 8.2348 45.8099 13.2278 48.238 20.0386L48.2528 20.0781C48.6442 21.1184 48.9189 22.1878 49.0767 23.2882C49.6037 26.5756 49.3034 29.9075 48.2099 32.9236L48.2021 32.9446C45.488 40.6507 38.1879 45.8274 30.0343 45.8274C27.1075 45.8274 24.7266 48.1929 24.7266 51.1008C24.7266 54.0087 27.0921 56.3742 30 56.3742C32.9079 56.3742 35.2734 54.0087 35.2734 51.1008V48.7301C42.2923 47.0618 48.1877 42.0864 51.0214 35.2804H54.7266C57.6345 35.2804 60 32.9148 60 30.0069V22.9757C60 20.0678 57.6345 17.7024 54.7266 17.7024Z" fill="#717680"/>
<path d="M14.1797 38.7961V42.3118H30C38.7238 42.3118 45.8203 35.2152 45.8203 26.4915C45.8203 17.7677 38.7238 10.6711 30 10.6711C21.2762 10.6711 14.1797 17.7677 14.1797 26.4915C14.1797 30.0483 15.3744 33.485 17.558 36.2642C17.134 37.7456 15.7813 38.7961 14.1797 38.7961ZM35.2734 24.7336H38.7891V28.2493H35.2734V24.7336ZM28.2422 24.7336H31.7578V28.2493H28.2422V24.7336ZM21.2109 24.7336H24.7266V28.2493H21.2109V24.7336Z" fill="#717680"/>
</svg>
