<svg width="20" height="21" viewBox="0 0 20 21" fill="none" xmlns="http://www.w3.org/2000/svg">
<path d="M17 0.841797H3C2.20435 0.841797 1.44129 1.15787 0.87868 1.72048C0.316071 2.28309 0 3.04615 0 3.8418V17.8418C0 18.6374 0.316071 19.4005 0.87868 19.9631C1.44129 20.5257 2.20435 20.8418 3 20.8418H17C17.7956 20.8418 18.5587 20.5257 19.1213 19.9631C19.6839 19.4005 20 18.6374 20 17.8418V3.8418C20 3.04615 19.6839 2.28309 19.1213 1.72048C18.5587 1.15787 17.7956 0.841797 17 0.841797ZM15 11.8418H5C4.73478 11.8418 4.48043 11.7364 4.29289 11.5489C4.10536 11.3614 4 11.107 4 10.8418C4 10.5766 4.10536 10.3222 4.29289 10.1347C4.48043 9.94715 4.73478 9.8418 5 9.8418H15C15.2652 9.8418 15.5196 9.94715 15.7071 10.1347C15.8946 10.3222 16 10.5766 16 10.8418C16 11.107 15.8946 11.3614 15.7071 11.5489C15.5196 11.7364 15.2652 11.8418 15 11.8418Z" fill="#181D27"/>
</svg>
