<svg width="38" height="24" viewBox="0 0 38 24" fill="none" xmlns="http://www.w3.org/2000/svg">
<rect x="0.5" y="1.3418" width="37" height="22" rx="3.5" fill="#F5F5F5"/>
<rect x="0.5" y="1.3418" width="37" height="22" rx="3.5" stroke="#E9EAEB"/>
<path d="M9.2358 17.981C8.65246 17.981 8.12713 17.865 7.6598 17.633C7.19247 17.401 6.81795 17.0828 6.53622 16.6784C6.2545 16.2741 6.10038 15.8134 6.07386 15.2963H7.26705C7.31345 15.757 7.52225 16.1382 7.89347 16.4398C8.26799 16.7381 8.71544 16.8873 9.2358 16.8873C9.65341 16.8873 10.0246 16.7895 10.3494 16.5939C10.6776 16.3984 10.9344 16.1299 11.12 15.7885C11.3089 15.4438 11.4034 15.0544 11.4034 14.6202C11.4034 14.1761 11.3056 13.78 11.1101 13.432C10.9179 13.0807 10.6527 12.8039 10.3146 12.6017C9.97656 12.3996 9.59044 12.2968 9.15625 12.2935C8.8447 12.2902 8.52486 12.3382 8.19673 12.4377C7.86861 12.5338 7.59848 12.6581 7.38636 12.8105L6.23295 12.6713L6.84943 7.65998H12.1392V8.75373H7.88352L7.52557 11.7566H7.58523C7.79403 11.5908 8.05587 11.4533 8.37074 11.3439C8.68561 11.2346 9.01373 11.1799 9.35511 11.1799C9.97822 11.1799 10.5334 11.329 11.0206 11.6273C11.5111 11.9223 11.8956 12.3266 12.174 12.8404C12.4557 13.3541 12.5966 13.9408 12.5966 14.6003C12.5966 15.2499 12.4508 15.83 12.1591 16.3404C11.8707 16.8475 11.473 17.2485 10.9659 17.5435C10.4588 17.8352 9.8821 17.981 9.2358 17.981Z" fill="#717680"/>
<path d="M24.5489 7.76885C24.8483 6.84754 26.1517 6.84754 26.4511 7.76885L26.9593 9.33319C27.0932 9.74521 27.4772 10.0242 27.9104 10.0242H29.5552C30.524 10.0242 30.9267 11.2638 30.143 11.8332L28.8123 12.8C28.4618 13.0546 28.3152 13.506 28.449 13.918L28.9573 15.4824C29.2567 16.4037 28.2022 17.1698 27.4185 16.6004L26.0878 15.6336C25.7373 15.3789 25.2627 15.3789 24.9122 15.6336L23.5815 16.6004C22.7978 17.1698 21.7433 16.4037 22.0427 15.4824L22.551 13.918C22.6848 13.506 22.5382 13.0546 22.1877 12.8L20.857 11.8332C20.0733 11.2638 20.476 10.0242 21.4448 10.0242H23.0896C23.5228 10.0242 23.9068 9.74521 24.0407 9.33319L24.5489 7.76885Z" fill="#4988FF"/>
</svg>
