<svg width="38" height="14" viewBox="0 0 38 14" fill="none" xmlns="http://www.w3.org/2000/svg">
<path d="M0.491477 6.75089C0.491477 5.49805 0.653883 4.34629 0.978693 3.29563C1.30682 2.24165 1.77415 1.27219 2.38068 0.387251H3.41477C3.17614 0.715376 2.95241 1.11973 2.74361 1.60032C2.53812 2.07759 2.35748 2.60292 2.2017 3.17631C2.04593 3.74639 1.9233 4.33635 1.83381 4.9462C1.74763 5.55605 1.70455 6.15761 1.70455 6.75089C1.70455 7.53971 1.78078 8.34014 1.93324 9.15217C2.0857 9.96419 2.29119 10.7182 2.54972 11.4142C2.80824 12.1103 3.09659 12.677 3.41477 13.1145H2.38068C1.77415 12.2296 1.30682 11.2618 0.978693 10.2111C0.653883 9.15714 0.491477 8.00373 0.491477 6.75089ZM5.12624 11.8418V10.9469L8.48704 7.26793C8.88145 6.83706 9.20626 6.46254 9.46147 6.14435C9.71668 5.82286 9.9056 5.52125 10.0282 5.23952C10.1542 4.95449 10.2172 4.65619 10.2172 4.34464C10.2172 3.98668 10.131 3.67679 9.95863 3.41495C9.7896 3.15311 9.55759 2.95093 9.26261 2.80842C8.96763 2.6659 8.63619 2.59464 8.26829 2.59464C7.87719 2.59464 7.53581 2.67584 7.24414 2.83825C6.95579 2.99734 6.73207 3.22106 6.57298 3.50941C6.4172 3.79776 6.33931 4.13583 6.33931 4.52361H5.16602C5.16602 3.92702 5.30356 3.40335 5.57866 2.95259C5.85375 2.50183 6.22828 2.15051 6.70224 1.89861C7.17951 1.64672 7.71478 1.52077 8.30806 1.52077C8.90465 1.52077 9.4333 1.64672 9.894 1.89861C10.3547 2.15051 10.716 2.49023 10.9778 2.91779C11.2396 3.34535 11.3706 3.82096 11.3706 4.34464C11.3706 4.71916 11.3026 5.0854 11.1667 5.44336C11.0342 5.798 10.8021 6.19407 10.4707 6.63157C10.1426 7.06576 9.68685 7.59606 9.10352 8.22248L6.81658 10.6685V10.748H11.5495V11.8418H5.12624ZM14.4778 11.9213C14.2325 11.9213 14.0221 11.8335 13.8464 11.6578C13.6708 11.4822 13.5829 11.2717 13.5829 11.0265C13.5829 10.7812 13.6708 10.5707 13.8464 10.3951C14.0221 10.2194 14.2325 10.1316 14.4778 10.1316C14.7231 10.1316 14.9335 10.2194 15.1092 10.3951C15.2849 10.5707 15.3727 10.7812 15.3727 11.0265C15.3727 11.1889 15.3313 11.338 15.2484 11.4739C15.1689 11.6098 15.0611 11.7192 14.9252 11.802C14.7927 11.8816 14.6435 11.9213 14.4778 11.9213ZM20.5158 11.981C19.8596 11.981 19.2746 11.8683 18.7608 11.6429C18.2504 11.4176 17.8444 11.1043 17.5428 10.7033C17.2445 10.2989 17.0821 9.82996 17.0556 9.29634H18.3084C18.3349 9.62447 18.4476 9.90785 18.6465 10.1465C18.8453 10.3818 19.1055 10.5641 19.427 10.6934C19.7485 10.8226 20.1048 10.8873 20.4959 10.8873C20.9334 10.8873 21.3212 10.811 21.6593 10.6586C21.9973 10.5061 22.2625 10.294 22.4547 10.0222C22.647 9.75041 22.7431 9.43555 22.7431 9.07759C22.7431 8.70307 22.6503 8.37328 22.4647 8.08825C22.2791 7.79989 22.0073 7.57451 21.6493 7.41211C21.2914 7.2497 20.8539 7.1685 20.3368 7.1685H19.5215V6.07475H20.3368C20.7412 6.07475 21.0958 6.00183 21.4007 5.856C21.709 5.71017 21.9493 5.50468 22.1216 5.23952C22.2973 4.97437 22.3851 4.66282 22.3851 4.30486C22.3851 3.96017 22.3089 3.66021 22.1564 3.40501C22.004 3.1498 21.7885 2.95093 21.5101 2.80842C21.235 2.6659 20.9102 2.59464 20.5357 2.59464C20.1844 2.59464 19.8529 2.65927 19.5414 2.78853C19.2331 2.91448 18.9812 3.09843 18.7857 3.34038C18.5901 3.57901 18.4841 3.86737 18.4675 4.20543H17.2743C17.2942 3.67182 17.455 3.20449 17.7566 2.80344C18.0582 2.39909 18.4526 2.08422 18.9398 1.85884C19.4303 1.63346 19.9689 1.52077 20.5556 1.52077C21.1853 1.52077 21.7256 1.64838 22.1763 1.90359C22.6271 2.15548 22.9734 2.48858 23.2154 2.90288C23.4573 3.31718 23.5783 3.76462 23.5783 4.24521C23.5783 4.8186 23.4275 5.30747 23.1259 5.71183C22.8276 6.11618 22.4216 6.39625 21.9078 6.55202V6.63157C22.5508 6.73763 23.053 7.01107 23.4142 7.45188C23.7755 7.88938 23.9561 8.43129 23.9561 9.07759C23.9561 9.6311 23.8053 10.1283 23.5037 10.5691C23.2054 11.0066 22.7978 11.3513 22.2807 11.6032C21.7637 11.8551 21.1754 11.981 20.5158 11.981ZM26.1685 11.8418V1.65998H27.4015V6.71111H27.5208L32.0946 1.65998H33.7054L29.4299 6.25373L33.7054 11.8418H32.214L28.6742 7.10884L27.4015 8.54066V11.8418H26.1685ZM37.6479 6.75089C37.6479 8.00373 37.4838 9.15714 37.1557 10.2111C36.8309 11.2618 36.3652 12.2296 35.7587 13.1145H34.7246C34.9632 12.7864 35.1853 12.382 35.3908 11.9015C35.5996 11.4242 35.7819 10.9005 35.9377 10.3304C36.0935 9.75704 36.2144 9.16542 36.3006 8.55558C36.3901 7.94241 36.4348 7.34085 36.4348 6.75089C36.4348 5.96206 36.3586 5.16164 36.2061 4.34961C36.0537 3.53758 35.8482 2.78356 35.5897 2.08753C35.3311 1.39151 35.0428 0.824751 34.7246 0.387251H35.7587C36.3652 1.27219 36.8309 2.24165 37.1557 3.29563C37.4838 4.34629 37.6479 5.49805 37.6479 6.75089Z" fill="#717680"/>
</svg>
