<svg width="37" height="35" viewBox="0 0 37 35" fill="none" xmlns="http://www.w3.org/2000/svg">
<path d="M15.6468 2.62294C16.5449 -0.140988 20.4551 -0.140983 21.3532 2.62295L23.4393 9.04342C23.8409 10.2795 24.9928 11.1164 26.2925 11.1164H33.0434C35.9495 11.1164 37.1579 14.8352 34.8067 16.5434L29.3451 20.5115C28.2937 21.2754 27.8537 22.6295 28.2553 23.8656L30.3415 30.2861C31.2395 33.05 28.0761 35.3484 25.7249 33.6402L20.2634 29.6721C19.2119 28.9082 17.7881 28.9082 16.7366 29.6721L11.2751 33.6402C8.92392 35.3484 5.76048 33.05 6.65854 30.2861L8.74468 23.8656C9.1463 22.6295 8.70632 21.2754 7.65486 20.5115L2.19328 16.5434C-0.157865 14.8352 1.05047 11.1164 3.95664 11.1164H10.7075C12.0072 11.1164 13.1591 10.2795 13.5607 9.04342L15.6468 2.62294Z" fill="#4988FF"/>
</svg>
