<svg width="18" height="18" viewBox="0 0 18 18" fill="none" xmlns="http://www.w3.org/2000/svg">
<path fill-rule="evenodd" clip-rule="evenodd" d="M17.7363 10.9775V7.02246C17.7363 6.73246 17.499 6.49512 17.209 6.49512H0.791016C0.500977 6.49512 0.263672 6.73242 0.263672 7.02246V10.9775C0.263672 11.2676 0.501012 11.5049 0.791016 11.5049H17.209C17.499 11.5049 17.7363 11.2676 17.7363 10.9775Z" fill="#FFC277"/>
<path fill-rule="evenodd" clip-rule="evenodd" d="M14.8126 11.5049H3.18741C4.1579 13.7538 6.39496 15.3281 9 15.3281C11.605 15.3281 13.8421 13.7538 14.8126 11.5049ZM14.8126 6.49512H3.18741C4.1579 4.24617 6.39496 2.67188 9 2.67188C11.605 2.67188 13.8421 4.24617 14.8126 6.49512Z" fill="white"/>
<path fill-rule="evenodd" clip-rule="evenodd" d="M14.8126 11.5049H3.18741C3.30578 11.7791 3.4431 12.0433 3.59751 12.2959H14.4025C14.5569 12.0433 14.6942 11.7792 14.8126 11.5049ZM3.59751 5.7041H14.4025C14.5569 5.95666 14.6943 6.22083 14.8126 6.49512H3.18741C3.30578 6.22083 3.4431 5.9567 3.59751 5.7041Z" fill="#9CE4F8"/>
<path fill-rule="evenodd" clip-rule="evenodd" d="M9.00035 15.3281C6.39531 15.3281 4.15825 13.7538 3.18776 11.5049H1.55464L1.50293 13.3286L3.56034 14.4399L4.67167 16.4974L7.00914 16.4311L9.00035 17.6572L10.9915 16.4311L13.329 16.4974L14.4403 14.44L16.4977 13.3286L16.446 11.5049H14.8129C13.8425 13.7538 11.6054 15.3281 9.00035 15.3281ZM9.00035 2.67188C6.39531 2.67188 4.15821 4.24617 3.18776 6.49512H1.55468L1.50296 4.67139L3.56038 3.56006L4.6717 1.50265L7.00917 1.56892L9.00035 0.342773L10.9915 1.56888L13.329 1.50261L14.4403 3.56003L16.4977 4.67135L16.446 6.49508H14.8129C13.8425 4.24617 11.6054 2.67188 9.00035 2.67188Z" fill="#FFC277"/>
<path fill-rule="evenodd" clip-rule="evenodd" d="M3.59783 12.2959C3.44343 12.0433 3.30611 11.7792 3.18773 11.5049H1.55466L1.53223 12.2959H3.59783ZM16.4685 12.2959L16.446 11.5049H14.8129C14.6946 11.7791 14.5572 12.0433 14.4028 12.2959H16.4685ZM1.53226 5.7041H3.59787C3.44346 5.95666 3.30614 6.22083 3.18777 6.49512H1.55469L1.53226 5.7041ZM14.4029 5.7041H16.4685L16.4461 6.49512H14.813C14.6946 6.22083 14.5573 5.9567 14.4029 5.7041Z" fill="#F69500"/>
<path fill-rule="evenodd" clip-rule="evenodd" d="M1.58203 6.49512H0.791016C0.500977 6.49512 0.263672 6.73242 0.263672 7.02246V10.9775C0.263672 11.2676 0.501012 11.5049 0.791016 11.5049H1.58203C1.29203 11.5049 1.05469 11.2676 1.05469 10.9775V7.02246C1.05469 6.73242 1.29199 6.49512 1.58203 6.49512Z" fill="#F69500"/>
<path d="M8.73633 11.2412H9.26367V11.7686H8.73633V11.2412Z" fill="black"/>
<path d="M17.209 6.23141H16.717L16.7656 4.51652L14.6346 3.36544L13.4835 1.23444L11.0624 1.30303L9 0.0330811L6.93759 1.303L4.51652 1.23441L3.36547 3.36544L1.23444 4.51652L1.28306 6.23141H0.791016C0.354832 6.23141 0 6.58624 0 7.02239V10.9775C0 11.4137 0.354832 11.7685 0.791016 11.7685H1.28306L1.23444 13.4834L3.36547 14.6345L4.51656 16.7655L6.93763 16.6969L9 17.9668L11.0624 16.6969L13.4834 16.7655L14.6345 14.6345L16.7655 13.4834L16.7169 11.7686H17.209C17.6451 11.7686 18 11.4137 18 10.9775V7.02239C18 6.58624 17.6451 6.23141 17.209 6.23141ZM1.77079 4.82618L3.75462 3.75455L4.82618 1.77075L7.08005 1.83459L9 0.652394L10.92 1.83463L13.1737 1.77078L14.2453 3.75458L16.2292 4.82621L16.1894 6.23144H14.9832C13.9052 3.90312 11.5759 2.40817 9 2.40817C7.80342 2.40817 6.63145 2.73227 5.61076 3.34547L5.88234 3.79747C6.82102 3.2336 7.89908 2.93551 9 2.93551C11.2871 2.93551 13.3629 4.2165 14.3966 6.23141H3.60337C4.041 5.37989 4.67645 4.64045 5.45878 4.07661L5.15043 3.64876C4.2275 4.31395 3.49316 5.20442 3.01721 6.23141H1.81062L1.77079 4.82618ZM16.2292 13.1737L14.2454 14.2453L13.1738 16.2292L10.92 16.1653L9 17.3475L7.08005 16.1653L4.82618 16.2291L3.75462 14.2453L1.77079 13.1737L1.81062 11.7685H3.01679C4.09482 14.0968 6.42417 15.5918 9 15.5918C11.5758 15.5918 13.9052 14.0968 14.9832 11.7685H16.1894L16.2292 13.1737ZM17.4727 10.9775C17.4727 11.1229 17.3544 11.2412 17.209 11.2412H9.79102V11.7685H14.3966C13.3629 13.7834 11.287 15.0644 9 15.0644C6.71298 15.0644 4.63714 13.7834 3.60341 11.7685H8.20898V11.2412H0.791016C0.645645 11.2412 0.527344 11.1229 0.527344 10.9775V7.02239C0.527344 6.87702 0.645645 6.75875 0.791016 6.75875H17.209C17.3544 6.75875 17.4727 6.87702 17.4727 7.02239V10.9775Z" fill="black"/>
<path d="M10.582 3.99011H11.1093V4.51746H10.582V3.99011Z" fill="black"/>
<path d="M11.6367 4.51758H12.164V5.04492H11.6367V4.51758Z" fill="black"/>
<path d="M8.52086 7.67082L7.5606 10.1921L8.05342 10.3798L8.28229 9.77892H9.20662L9.4332 10.3793L9.92658 10.1931L8.97448 7.67029L8.52086 7.67082ZM8.4831 9.25158L8.74653 8.55988L9.00756 9.25158H8.4831Z" fill="black"/>
<path d="M12.4776 9.26654L11.4748 7.67051H10.9717V10.3292H11.499V8.70034L12.5019 10.2963H13.0049V7.6665H12.4776V9.26654Z" fill="black"/>
<path d="M14.8817 7.6665H14.0311V10.266H14.9012L14.9034 10.266C15.5285 10.2551 15.9822 9.70848 15.9822 8.96627C15.9822 8.18886 15.5399 7.6665 14.8817 7.6665ZM14.8963 9.73872H14.5585V8.19388H14.8817C15.1587 8.19388 15.4548 8.3968 15.4548 8.96634C15.4548 9.48897 15.1657 9.73281 14.8963 9.73872Z" fill="black"/>
<path d="M3.5338 8.83826C3.61139 8.71954 3.65653 8.57779 3.65653 8.42567C3.65653 8.00935 3.31783 7.67065 2.90148 7.67065H2.01758V10.3333H3.00986C3.47217 10.3333 3.8483 9.95609 3.8483 9.49235C3.8483 9.22811 3.72543 8.99204 3.5338 8.83826ZM2.54492 8.198H2.90151C3.02705 8.198 3.12922 8.30013 3.12922 8.42567C3.12922 8.55153 3.02709 8.65394 2.90155 8.65394H2.63787H2.54492V8.198ZM3.00986 9.80601H2.54492V9.18128H3.00986C3.18139 9.18128 3.32096 9.32085 3.32096 9.49238C3.32096 9.66531 3.18139 9.80601 3.00986 9.80601Z" fill="black"/>
<path d="M6.55703 8.48927C6.55703 8.03786 6.17572 7.67065 5.70702 7.67065H4.87561L4.87515 10.3333L5.4025 10.3334L5.40267 9.44896L6.19752 10.3886L6.60013 10.048L5.94601 9.27473C6.29866 9.17502 6.55703 8.86076 6.55703 8.48927ZM5.40285 8.19796H5.70698C5.88189 8.19796 6.02965 8.33135 6.02965 8.48923C6.02965 8.64712 5.88189 8.7805 5.70554 8.7805L5.40271 8.78215L5.40285 8.19796Z" fill="black"/>
</svg>
