<svg width="57" height="56" viewBox="0 0 57 56" fill="none" xmlns="http://www.w3.org/2000/svg">
<g clip-path="url(#clip0_1_1665)">
<path d="M14.5551 30.9531C16.4801 33.0531 18.4561 37.8073 19.2035 39.9219C19.7868 40.3047 21.3254 41.0485 22.8129 40.9609C24.6723 40.8516 22.8129 39.9219 22.8129 39.1016C22.8129 38.2813 23.0863 34.2344 23.7426 30.0235C24.3988 25.8125 23.7426 26.3047 24.5629 24.0078C25.3832 21.711 26.0941 18.8672 27.7348 14.9297C29.3754 10.9922 28.5004 15.6406 29.8129 18.8672C31.1254 22.0938 32.9301 23.4063 33.5316 26.3047C34.1332 29.2031 33.5316 35.4922 33.5316 39.1016C33.5316 42.7109 34.3519 39.9219 35.6098 39.9219C36.8676 39.9219 37.141 40.6328 38.5082 39.9219C39.8754 39.211 38.5082 39.3203 39.1098 37.9531C39.7113 36.5859 40.9691 34.5625 43.5394 30.9531C46.1098 27.3438 45.9457 24.7188 46.3285 17.8281C46.7113 10.9375 41.1879 7.27346 38.5082 4.4844C35.8285 1.69534 32.1098 1.09378 23.7426 2.95315C15.3754 4.81253 12.3676 9.57034 10.0707 16.461C7.7738 23.3516 12.1488 28.3281 14.5551 30.9531Z" fill="#FFE100" stroke="#C8C8C8" stroke-width="2" stroke-linecap="round"/>
<path d="M40.8509 4.40387C36.2278 0.647061 30.1851 -0.798876 24.2711 0.436842C16.8805 1.98111 10.8509 8.03687 9.26711 15.506C7.93175 21.804 9.57729 28.127 13.7819 32.8536C15.8672 35.198 17.0157 38.1306 17.0157 41.1199V44.4011C17.0157 46.5399 18.3873 48.3635 20.2969 49.0408V51.073C20.2969 53.7869 22.5049 55.9949 25.2188 55.9949H31.7813C34.4952 55.9949 36.7032 53.7869 36.7032 51.073V49.0408C38.6128 48.3635 39.9844 46.5399 39.9844 44.4011V41.1199C39.9844 38.1689 41.167 35.1947 43.314 32.7451C46.4568 29.1597 48.1875 24.5594 48.1875 19.7917C48.1875 13.8016 45.5134 8.19284 40.8509 4.40387ZM33.4219 51.073C33.4219 51.9776 32.6859 52.7136 31.7813 52.7136H25.2188C24.3142 52.7136 23.5782 51.9776 23.5782 51.073V49.323H33.4219V51.073ZM36.7032 44.4011C36.7032 45.3057 35.9672 46.0417 35.0625 46.0417H21.9375C21.0329 46.0417 20.2969 45.3057 20.2969 44.4011V42.7605H36.7032V44.4011ZM28.5 27.8502C29.6079 27.8502 30.7155 27.673 31.7813 27.3213V39.4793H25.2188V27.3213C26.2845 27.673 27.3921 27.8502 28.5 27.8502ZM25.7575 24.0236L28.5 18.5384L31.2426 24.0235C29.4845 24.7469 27.5156 24.7469 25.7575 24.0236ZM40.8465 30.5823C38.5653 33.1849 37.159 36.2937 36.7967 39.4792H35.0625V24.7251C35.0625 24.7229 35.0625 24.7208 35.0625 24.7186C35.0625 24.4947 35.0141 24.2481 34.9049 24.0164C34.8993 24.0044 34.8952 23.9918 34.8893 23.98L29.9674 14.1363C29.6895 13.5804 29.1214 13.2293 28.4999 13.2293C27.8785 13.2293 27.3105 13.5804 27.0325 14.1363L22.1106 23.98C22.002 24.1977 21.9374 24.4624 21.9374 24.7174C21.9374 24.7204 21.9374 24.7232 21.9374 24.7262V39.4793H20.2075C19.8557 36.2717 18.4756 33.1935 16.2335 30.6729C12.7295 26.7337 11.3602 21.4537 12.477 16.1866C13.7952 9.96975 18.8046 4.93117 24.9422 3.64875C29.8846 2.61603 34.9288 3.81948 38.7815 6.95034C42.674 10.1135 44.9063 14.794 44.9063 19.7917C44.9063 23.7634 43.4645 27.5955 40.8465 30.5823Z" fill="black"/>
<path d="M5.42188 19.7917H2.14062C1.23456 19.7917 0.5 20.5263 0.5 21.4324C0.5 22.3384 1.23456 23.073 2.14062 23.073H5.42188C6.32794 23.073 7.0625 22.3384 7.0625 21.4324C7.0625 20.5263 6.32794 19.7917 5.42188 19.7917Z" fill="black"/>
<path d="M6.10141 11.5886L3.78124 9.26838C3.14052 8.62766 2.10179 8.62766 1.46107 9.26838C0.82035 9.9091 0.82035 10.9478 1.46107 11.5886L3.78124 13.9087C4.42207 14.5496 5.4608 14.5493 6.10141 13.9087C6.74213 13.268 6.74213 12.2293 6.10141 11.5886Z" fill="black"/>
<path d="M6.10139 28.9559C5.46067 28.3152 4.42194 28.3152 3.78122 28.9559L1.46105 31.2761C0.820438 31.9168 0.820438 32.9555 1.46105 33.5962C2.10166 34.2368 3.14039 34.2369 3.78122 33.5962L6.10139 31.2761C6.742 30.6353 6.742 29.5966 6.10139 28.9559Z" fill="black"/>
<path d="M54.8594 19.7917H51.5781C50.6721 19.7917 49.9375 20.5263 49.9375 21.4324C49.9375 22.3384 50.6721 23.073 51.5781 23.073H54.8594C55.7654 23.073 56.5 22.3384 56.5 21.4324C56.5 20.5263 55.7654 19.7917 54.8594 19.7917Z" fill="black"/>
<path d="M55.5389 9.26838C54.8983 8.62766 53.8595 8.62766 53.2187 9.26838L50.8986 11.5886C50.2579 12.2293 50.2579 13.268 50.8986 13.9087C51.5392 14.5494 52.578 14.5494 53.2187 13.9087L55.5389 11.5886C56.1796 10.9478 56.1796 9.9091 55.5389 9.26838Z" fill="black"/>
<path d="M55.5389 31.2761L53.2187 28.9559C52.5782 28.3152 51.5394 28.3152 50.8985 28.9559C50.2577 29.5966 50.2578 30.6353 50.8985 31.2761L53.2187 33.5962C53.8592 34.2369 54.8982 34.2369 55.5389 33.5962C56.1796 32.9555 56.1796 31.9168 55.5389 31.2761Z" fill="black"/>
</g>
<defs>
<clipPath id="clip0_1_1665">
<rect width="56" height="56" fill="white" transform="translate(0.5)"/>
</clipPath>
</defs>
</svg>
