<svg width="56" height="56" viewBox="0 0 56 56" fill="none" xmlns="http://www.w3.org/2000/svg">
<path fill-rule="evenodd" clip-rule="evenodd" d="M40.281 7.49811V42.5423C40.281 45.7169 32.1954 48.2903 22.2215 48.2903C12.2476 48.2903 4.16205 45.7169 4.16205 42.5423V7.49811C4.16205 4.3235 12.2476 1.75012 22.2215 1.75012C32.1953 1.75012 40.281 4.32361 40.281 7.49811Z" fill="#FFD064"/>
<path fill-rule="evenodd" clip-rule="evenodd" d="M40.2813 7.49811V42.5423C40.2813 45.7168 32.1958 48.2903 22.2219 48.2903C21.8303 48.2903 21.4419 48.2859 21.0566 48.278C30.4872 48.0868 37.9508 45.5922 37.9508 42.5423V7.49811C37.9508 4.44818 30.4872 1.95356 21.0566 1.76237C21.442 1.75461 21.8303 1.75012 22.2219 1.75012C32.1957 1.75012 40.2813 4.32361 40.2813 7.49811Z" fill="#FFC338"/>
<path fill-rule="evenodd" clip-rule="evenodd" d="M4.16205 19.1795C4.16205 22.3541 12.2476 24.9274 22.2215 24.9274C23.0081 24.9274 23.7832 24.9114 24.5432 24.8804C31.8869 24.5803 37.8503 22.8765 39.6916 20.6414C40.0762 20.1746 40.281 19.6847 40.281 19.1795V7.49805C40.281 10.6727 32.1954 13.246 22.2215 13.246C12.2476 13.246 4.16205 10.6727 4.16205 7.49805V19.1795Z" fill="white"/>
<path fill-rule="evenodd" clip-rule="evenodd" d="M37.9503 22.0057C38.7043 21.5815 39.2941 21.1239 39.6916 20.6414C40.0762 20.1746 40.2809 19.6847 40.2809 19.1795V7.49805C40.2809 8.52519 39.4334 9.48933 37.9503 10.3238V22.0057Z" fill="#F5B829"/>
<path fill-rule="evenodd" clip-rule="evenodd" d="M18.2034 36.4661C10.1635 35.8847 4.16205 33.5959 4.16205 30.861V42.5424C4.16205 45.5284 11.3151 47.9824 20.4645 48.2635C21.0427 48.2812 21.6287 48.2903 22.2215 48.2903C32.1954 48.2903 40.281 45.7169 40.281 42.5423V30.861C40.281 33.7988 33.3564 36.2218 24.419 36.5668C23.6987 36.5946 22.9654 36.6089 22.2215 36.6089C20.8404 36.6089 19.4955 36.5596 18.2034 36.4661Z" fill="#FFC338"/>
<path fill-rule="evenodd" clip-rule="evenodd" d="M21.0449 48.2783C21.4337 48.2863 21.826 48.2903 22.2212 48.2903C32.1951 48.2903 40.2806 45.7169 40.2806 42.5423V30.861C40.2806 31.8882 39.4332 32.8522 37.95 33.6868V42.5424C37.95 45.5934 30.4808 48.0888 21.0449 48.2783Z" fill="#F5B829"/>
<path fill-rule="evenodd" clip-rule="evenodd" d="M38.6961 27.965C45.9544 27.965 51.8386 33.849 51.8386 41.1075C51.8386 48.3659 45.9544 54.25 38.6961 54.25C38.5586 54.25 38.4218 54.2471 38.2853 54.243C45.3535 54.0259 51.017 48.2284 51.017 41.1075C51.017 33.9865 45.3534 28.1891 38.2853 27.972C38.4218 27.9678 38.5586 27.965 38.6961 27.965Z" fill="#60B7FF"/>
<path fill-rule="evenodd" clip-rule="evenodd" d="M44.6929 46.4646C44.8216 46.7008 44.8319 46.983 44.7289 47.2301L43.4213 50.215C43.2771 50.5445 42.9529 50.7401 42.6182 50.7401C42.4997 50.7401 42.3814 50.7159 42.2681 50.6659C41.8253 50.4723 41.6245 49.956 41.815 49.5143L41.99 49.1215C41.2333 49.4319 40.4301 49.6353 39.6013 49.7228C39.2924 49.7557 38.9835 49.7712 38.6798 49.7712C36.7028 49.7722 34.8032 49.1014 33.2433 47.8406C31.4466 46.3848 30.3192 44.3157 30.0772 42.0145C29.9279 40.589 30.139 39.1398 30.6744 37.8229C30.8597 37.3755 31.3694 37.1624 31.8173 37.3451C32.2652 37.5289 32.4814 38.0406 32.2961 38.487C31.8636 39.5378 31.6989 40.694 31.8173 41.8307C32.0129 43.6671 32.9086 45.3186 34.345 46.481C35.7813 47.6423 37.5832 48.1752 39.4211 47.9827C40.1933 47.9019 40.9347 47.694 41.6245 47.3707L40.564 47.1873C40.0904 47.1055 39.7712 46.654 39.8536 46.1773C39.9308 45.701 40.3839 45.3819 40.8626 45.4637L44.075 46.0161C44.3376 46.0625 44.5693 46.2273 44.6929 46.4646ZM47.3133 40.1998C47.0714 37.8986 45.9439 35.8291 44.1472 34.3732C42.3505 32.9163 40.0905 32.248 37.7893 32.4911C36.945 32.5797 36.1367 32.7887 35.3697 33.1068L35.5755 32.6342C35.766 32.1926 35.5652 31.6761 35.1225 31.4826C34.6797 31.289 34.1649 31.4904 33.9693 31.9336L32.6669 34.918C32.5588 35.1656 32.5691 35.4477 32.6978 35.6841C32.8214 35.9214 33.0531 36.0861 33.3156 36.1319L36.5281 36.6848C36.5796 36.6936 36.631 36.6977 36.6773 36.6977C37.0995 36.6977 37.4651 36.3971 37.5423 35.9714C37.6246 35.4946 37.3055 35.0427 36.8266 34.9608L35.8691 34.7955C36.5332 34.5005 37.2384 34.309 37.9746 34.2312C39.8074 34.0376 41.6093 34.5715 43.0456 35.7329C44.4819 36.8959 45.3777 38.5464 45.5734 40.3838C45.6918 41.5055 45.5425 42.6031 45.1306 43.6441C44.9505 44.0936 45.1718 44.6023 45.6197 44.7794C45.7278 44.8221 45.836 44.8416 45.9389 44.8416C46.289 44.8416 46.6184 44.632 46.7575 44.2881C47.2669 42.9999 47.4575 41.5852 47.3133 40.1998ZM38.6952 53.375C45.4598 53.375 50.9633 47.8716 50.9633 41.1064C50.9633 34.3428 45.4598 28.8389 38.6952 28.8389C31.9305 28.8389 26.4272 34.3428 26.4272 41.1064C26.4273 47.8716 31.9306 53.375 38.6952 53.375ZM22.2211 47.4155C11.5748 47.4155 5.03658 44.5768 5.03658 42.5423V33.7848C6.01986 34.5297 7.40991 35.1938 9.18605 35.7591C12.6817 36.8716 17.3098 37.4843 22.2211 37.4843C23.2096 37.4843 24.2032 37.457 25.1762 37.4065C24.8519 38.5854 24.6768 39.8266 24.6768 41.1064C24.6768 43.3202 25.1968 45.4159 26.1131 47.2786C24.8416 47.3691 23.5391 47.4155 22.2211 47.4155ZM5.03669 22.1036C6.01997 22.8486 7.41002 23.5127 9.18616 24.0779C12.6818 25.1894 17.3099 25.8016 22.2213 25.8016C27.1326 25.8016 31.7608 25.1895 35.2563 24.0779C37.0325 23.5127 38.4224 22.8486 39.4057 22.1036V27.1076C39.1689 27.0958 38.9321 27.089 38.6953 27.089C32.914 27.089 27.9408 30.6077 25.7992 35.6159C24.6254 35.6926 23.4259 35.7338 22.2213 35.7338C11.5749 35.7338 5.03669 32.8956 5.03669 30.8601V22.1036ZM5.03669 10.4224V19.1788C5.03669 21.2144 11.5748 24.0516 22.2213 24.0516C32.8676 24.0516 39.4058 21.2144 39.4058 19.1788V10.4224C38.4225 11.1662 37.0325 11.8309 35.2565 12.3957C31.7608 13.5077 27.1326 14.1203 22.2214 14.1203C17.3101 14.1203 12.6819 13.5077 9.18627 12.3957C7.40991 11.831 6.01997 11.1663 5.03669 10.4224ZM22.2211 2.62503C32.8675 2.62503 39.4057 5.46221 39.4057 7.49768C39.4057 9.53228 32.8676 12.3704 22.2211 12.3704C11.5748 12.3704 5.03658 9.53228 5.03658 7.49768C5.03669 5.46221 11.5748 2.62503 22.2211 2.62503ZM41.156 27.3058V7.49779C41.156 5.52138 39.1174 3.82717 35.2562 2.59888C31.7606 1.48796 27.1324 0.875244 22.2211 0.875244C17.3099 0.875244 12.6817 1.48785 9.18605 2.59878C5.3249 3.82706 3.28625 5.52138 3.28625 7.49768V42.5422C3.28625 44.5181 5.3249 46.2123 9.18605 47.4401C12.6817 48.5527 17.3098 49.1653 22.2211 49.1653C23.8737 49.1653 25.5057 49.0943 27.0861 48.9563C29.6088 52.6758 33.8714 55.1248 38.6952 55.1248C46.4226 55.1248 52.7136 48.8358 52.7136 41.1063C52.7137 34.2171 47.7148 28.4723 41.156 27.3058Z" fill="black"/>
</svg>
