<svg width="18" height="22" viewBox="0 0 18 22" fill="none" xmlns="http://www.w3.org/2000/svg">
<path d="M4.50481 17.7045H1.33691L1.67448 11.9213L1.78459 10.0316L1.91857 7.73356H3.92276L4.05674 10.0316L4.16727 11.9213L4.50481 17.7045Z" fill="#EB5569"/>
<path d="M4.50527 17.7046H3.5877L3.2502 11.9212L3.1398 10.0316L3.00586 7.73356H3.92344L4.05738 10.0316L4.16777 11.9212L4.50527 17.7046Z" fill="#E53950"/>
<path d="M9.29641 16.4332H6.12891L6.48156 10.3887L6.58611 8.5942L6.71057 6.46183H8.71475L8.83921 8.5942L8.94376 10.3887L9.29641 16.4332Z" fill="#EB5569"/>
<path d="M9.29645 16.4332H8.38239L8.02942 10.3888L7.92501 8.59432L7.80055 6.46179H8.71461L8.83907 8.59432L8.94348 10.3888L9.29645 16.4332Z" fill="#E53950"/>
<mask id="mask0_1_1965" style="mask-type:luminance" maskUnits="userSpaceOnUse" x="0" y="0" width="18" height="22">
<path d="M0 0.637041H18V21.3628H0V0.637041Z" fill="white"/>
</mask>
<g mask="url(#mask0_1_1965)">
<path d="M10.8804 1.86261C10.8804 2.11578 10.7914 2.34465 10.6474 2.50993C10.5039 2.67565 10.3051 2.77819 10.0852 2.77819H9.29447C9.28094 3.0048 9.19509 3.20898 9.06385 3.36001C8.91995 3.52573 8.72114 3.62827 8.5017 3.62827H8.48099C8.33112 3.62827 8.20987 3.76789 8.20987 3.94049V4.50907C8.20987 4.82494 7.98722 5.0813 7.7129 5.0813C7.57533 5.0813 7.4513 5.01722 7.36144 4.91375C7.27158 4.81024 7.21593 4.66699 7.21593 4.50907V3.94049C7.21593 3.76789 7.09429 3.62827 6.94438 3.62827C6.72532 3.62827 6.52254 3.52849 6.37425 3.366C6.22596 3.20299 6.13175 2.97731 6.12897 2.72463C6.12619 2.46734 6.21563 2.2339 6.36195 2.06542C6.50584 1.89969 6.70465 1.79716 6.9241 1.79716H7.71529C7.72879 1.57055 7.81468 1.36637 7.94588 1.21534C8.08981 1.04961 8.28858 0.947077 8.50806 0.947077H10.0852C10.5246 0.947077 10.8804 1.35726 10.8804 1.86261Z" fill="#D9E7EC"/>
<path d="M8.80215 2.77839H9.29433C9.28062 3.00468 9.19484 3.2091 9.06367 3.36005C8.91992 3.52565 8.72094 3.62847 8.50156 3.62847H8.48082C8.33105 3.62847 8.20976 3.76768 8.20976 3.94057V4.50891C8.20976 4.82506 7.98722 5.0813 7.71265 5.0813C7.62301 5.0813 7.53898 5.05418 7.46656 5.00597C7.61668 4.90764 7.71758 4.72184 7.71758 4.50891V3.94057C7.71758 3.76768 7.83887 3.62847 7.98863 3.62847H8.00937C8.22875 3.62847 8.42773 3.52565 8.57152 3.36005C8.70265 3.2091 8.78844 3.00468 8.80215 2.77839Z" fill="#C5D3DD"/>
<path d="M10.8802 1.86279C10.8802 2.11579 10.7912 2.3449 10.647 2.51002C10.5036 2.67562 10.305 2.77844 10.0849 2.77844H9.59274C9.81282 2.77844 10.0114 2.67562 10.1549 2.51002C10.299 2.3449 10.388 2.11579 10.388 1.86279C10.388 1.35719 10.0322 0.947128 9.59274 0.947128H10.0849C10.5244 0.947128 10.8802 1.35719 10.8802 1.86279Z" fill="#C5D3DD"/>
<path d="M4.50498 4.09323C4.50498 4.3459 4.41593 4.57478 4.272 4.7405C4.12807 4.90623 3.9293 5.00876 3.70982 5.00876H3.68914C3.53927 5.00876 3.41802 5.14838 3.41802 5.32098V5.88953C3.41802 6.20543 3.19537 6.46179 2.92105 6.46179C2.78387 6.46179 2.65942 6.39771 2.56959 6.2942C2.47973 6.19074 2.42408 6.04748 2.42408 5.88953V5.32098C2.42408 5.14838 2.30279 5.00876 2.15292 5.00876C1.93344 5.00876 1.73112 4.90898 1.58279 4.74649C1.43412 4.58348 1.3399 4.3578 1.33708 4.10513V4.08906C0.900549 4.04558 0.557846 3.62309 0.557846 3.109C0.557846 2.56559 0.940698 2.12473 1.41264 2.12473C1.88454 2.12473 2.26742 2.56559 2.26742 3.109C2.26742 3.13187 2.26665 3.15474 2.26503 3.17765H3.70982C4.14878 3.17765 4.50498 3.58735 4.50498 4.09323Z" fill="#D9E7EC"/>
<path d="M2.26699 3.10924C2.26699 3.13191 2.26594 3.15498 2.26453 3.17761H1.76637C1.76777 3.15498 1.76883 3.13191 1.76883 3.10924C1.76883 2.66558 1.51359 2.29033 1.16309 2.16723C1.24184 2.13975 1.32551 2.12477 1.41199 2.12477C1.88414 2.12477 2.26699 2.56555 2.26699 3.10924Z" fill="#C5D3DD"/>
<path d="M4.50492 4.09319C4.50492 4.34578 4.41598 4.5749 4.27219 4.74046C4.12805 4.90602 3.92941 5.00884 3.71004 5.00884H3.6893C3.53918 5.00884 3.41789 5.1485 3.41789 5.32094V5.88969C3.41789 6.20543 3.19535 6.46167 2.92113 6.46167C2.83043 6.46167 2.745 6.43374 2.67188 6.38439C2.81988 6.28558 2.91973 6.10103 2.91973 5.88969V5.32094C2.91973 5.1485 3.04102 5.00884 3.19113 5.00884H3.21152C3.43125 5.00884 3.62988 4.90602 3.77402 4.74046C3.91781 4.5749 4.00676 4.34578 4.00676 4.09319C4.00676 3.58719 3.65062 3.17753 3.21152 3.17753H3.71004C4.14879 3.17753 4.50492 3.58719 4.50492 4.09319Z" fill="#C5D3DD"/>
<path d="M4.16736 11.9213H1.67458L1.78469 10.0315H4.05683L4.16736 11.9213Z" fill="#FFE177"/>
<path d="M4.16748 11.9213H3.2499L3.13951 10.0317H4.05709L4.16748 11.9213Z" fill="#FFC344"/>
<path d="M8.94363 10.3887H6.48142L6.58598 8.59419H8.83907L8.94363 10.3887Z" fill="#FFE177"/>
<path d="M8.94339 10.3887H8.02933L7.92491 8.59419H8.83897L8.94339 10.3887Z" fill="#FFC344"/>
<path d="M17.7363 21.053H10.4773V9.49169H17.7363V21.053Z" fill="#EB5569"/>
<path d="M17.7363 21.053H16.8398V9.49153H17.7363V21.053Z" fill="#E53950"/>
<path d="M10.4774 13.1933V21.053H0.263672V16.559L2.92106 16.0014V14.8624L10.4774 13.1933Z" fill="#FFF9DF"/>
<path d="M10.4773 13.1934V21.053H9.51054V13.4071L10.4773 13.1934Z" fill="#FFF3BE"/>
<path d="M15.11 21.053H13.1035V18.3001H15.11V21.053Z" fill="#A8D3D8"/>
<path d="M16.2869 12.3298H11.9268V11.1854H16.2869V12.3298Z" fill="#FFE177"/>
<path d="M13.5784 14.6804H11.9268V13.536H13.5784V14.6804Z" fill="#FFE177"/>
<path d="M16.2874 14.6804H14.6357V13.536H16.2874V14.6804Z" fill="#FFE177"/>
<path d="M13.5784 17.0312H11.9268V15.8868H13.5784V17.0312Z" fill="#FFE177"/>
<path d="M16.2874 17.0312H14.6357V15.8868H16.2874V17.0312Z" fill="#FFE177"/>
<path d="M17.7364 9.49146H15.1102L15.7122 7.29776H17.7364V9.49146Z" fill="#FFE177"/>
<path d="M17.7363 9.49109H16.8398V7.29748H17.7363V9.49109Z" fill="#FFC344"/>
<path d="M5.41996 16.8431H4.50491V15.7896H5.41996V16.8431Z" fill="#FFE177"/>
<path d="M7.30173 16.8431H6.38672V15.7896H7.30173V16.8431Z" fill="#FFE177"/>
<path d="M9.18374 16.8431H8.26869V15.7896H9.18374V16.8431Z" fill="#FFE177"/>
<path d="M17.7363 19.9328V21.053H10.4773V9.49165H17.7363V18.5429" stroke="black" stroke-width="0.5" stroke-miterlimit="10" stroke-linecap="round" stroke-linejoin="round"/>
<path d="M10.4774 13.1933V21.053H0.263672V16.559L2.92106 16.0014V14.8624L10.4774 13.1933Z" stroke="black" stroke-width="0.5" stroke-miterlimit="10" stroke-linecap="round" stroke-linejoin="round"/>
<path d="M3.50195 7.73356H3.92256L4.05654 10.0316L4.16707 11.9213L4.32067 14.5529" stroke="black" stroke-width="0.5" stroke-miterlimit="10" stroke-linecap="round" stroke-linejoin="round"/>
<path d="M1.41814 16.3164L1.67467 11.9213L1.78478 10.0316L1.91876 7.73352H2.22652" stroke="black" stroke-width="0.5" stroke-miterlimit="10" stroke-linecap="round" stroke-linejoin="round"/>
<path d="M6.2635 14.1237L6.4814 10.3885L6.58596 8.59401L6.71041 6.46169H8.7146L8.83905 8.59401L8.94361 10.3885L9.03909 12.0248" stroke="black" stroke-width="0.5" stroke-miterlimit="10" stroke-linecap="round" stroke-linejoin="round"/>
<path d="M15.11 21.053H13.1035V18.3001H15.11V21.053Z" stroke="black" stroke-width="0.5" stroke-miterlimit="10" stroke-linecap="round" stroke-linejoin="round"/>
<path d="M16.2869 12.3298H11.9268V11.1854H16.2869V12.3298Z" stroke="black" stroke-width="0.5" stroke-miterlimit="10" stroke-linecap="round" stroke-linejoin="round"/>
<path d="M13.5784 14.6804H11.9268V13.536H13.5784V14.6804Z" stroke="black" stroke-width="0.5" stroke-miterlimit="10" stroke-linecap="round" stroke-linejoin="round"/>
<path d="M16.2874 14.6804H14.6357V13.536H16.2874V14.6804Z" stroke="black" stroke-width="0.5" stroke-miterlimit="10" stroke-linecap="round" stroke-linejoin="round"/>
<path d="M13.5784 17.0312H11.9268V15.8868H13.5784V17.0312Z" stroke="black" stroke-width="0.5" stroke-miterlimit="10" stroke-linecap="round" stroke-linejoin="round"/>
<path d="M16.2874 17.0312H14.6357V15.8868H16.2874V17.0312Z" stroke="black" stroke-width="0.5" stroke-miterlimit="10" stroke-linecap="round" stroke-linejoin="round"/>
<path d="M17.7364 9.49146H15.1102L15.7122 7.29776H17.7364V9.49146Z" stroke="black" stroke-width="0.5" stroke-miterlimit="10" stroke-linecap="round" stroke-linejoin="round"/>
<path d="M10.8804 1.86261C10.8804 2.11578 10.7914 2.34465 10.6474 2.50993C10.5039 2.67565 10.3051 2.77819 10.0852 2.77819H9.29447C9.28094 3.0048 9.19509 3.20898 9.06385 3.36001C8.91995 3.52573 8.72114 3.62827 8.5017 3.62827H8.48099C8.33112 3.62827 8.20987 3.76789 8.20987 3.94049V4.50907C8.20987 4.82494 7.98722 5.0813 7.7129 5.0813C7.57533 5.0813 7.4513 5.01722 7.36144 4.91375C7.27158 4.81024 7.21593 4.66699 7.21593 4.50907V3.94049C7.21593 3.76789 7.09429 3.62827 6.94438 3.62827C6.72532 3.62827 6.52254 3.52849 6.37425 3.366C6.22596 3.20299 6.13175 2.97731 6.12897 2.72463C6.12619 2.46734 6.21563 2.2339 6.36195 2.06542C6.50584 1.89969 6.70465 1.79716 6.9241 1.79716H7.71529C7.72879 1.57055 7.81468 1.36637 7.94588 1.21534C8.08981 1.04961 8.28858 0.947077 8.50806 0.947077H10.0852C10.5246 0.947077 10.8804 1.35726 10.8804 1.86261Z" stroke="black" stroke-width="0.5" stroke-miterlimit="10" stroke-linecap="round" stroke-linejoin="round"/>
<path d="M4.50498 4.09323C4.50498 4.3459 4.41593 4.57478 4.272 4.7405C4.12807 4.90623 3.9293 5.00876 3.70982 5.00876H3.68914C3.53927 5.00876 3.41802 5.14838 3.41802 5.32098V5.88953C3.41802 6.20543 3.19537 6.46179 2.92105 6.46179C2.78387 6.46179 2.65942 6.39771 2.56959 6.2942C2.47973 6.19074 2.42408 6.04748 2.42408 5.88953V5.32098C2.42408 5.14838 2.30279 5.00876 2.15292 5.00876C1.93344 5.00876 1.73112 4.90898 1.58279 4.74649C1.43412 4.58348 1.3399 4.3578 1.33708 4.10513V4.08906C0.900549 4.04558 0.557846 3.62309 0.557846 3.109C0.557846 2.56559 0.940698 2.12473 1.41264 2.12473C1.88454 2.12473 2.26742 2.56559 2.26742 3.109C2.26742 3.13187 2.26665 3.15474 2.26503 3.17765H3.70982C4.14878 3.17765 4.50498 3.58735 4.50498 4.09323Z" stroke="black" stroke-width="0.5" stroke-miterlimit="10" stroke-linecap="round" stroke-linejoin="round"/>
<path d="M4.16736 11.9213H1.67458L1.78469 10.0315H4.05683L4.16736 11.9213Z" stroke="black" stroke-width="0.5" stroke-miterlimit="10" stroke-linecap="round" stroke-linejoin="round"/>
<path d="M8.94363 10.3887H6.48142L6.58598 8.59419H8.83907L8.94363 10.3887Z" stroke="black" stroke-width="0.5" stroke-miterlimit="10" stroke-linecap="round" stroke-linejoin="round"/>
<path d="M5.41996 16.8431H4.50491V15.7896H5.41996V16.8431Z" stroke="black" stroke-width="0.5" stroke-miterlimit="10" stroke-linecap="round" stroke-linejoin="round"/>
<path d="M7.30173 16.8431H6.38672V15.7896H7.30173V16.8431Z" stroke="black" stroke-width="0.5" stroke-miterlimit="10" stroke-linecap="round" stroke-linejoin="round"/>
<path d="M9.18374 16.8431H8.26869V15.7896H9.18374V16.8431Z" stroke="black" stroke-width="0.5" stroke-miterlimit="10" stroke-linecap="round" stroke-linejoin="round"/>
<path d="M1.8457 18.1648H9.18394" stroke="black" stroke-width="0.5" stroke-miterlimit="10" stroke-linecap="round" stroke-linejoin="round"/>
</g>
</svg>
