<svg width="60" height="56" viewBox="0 0 60 56" fill="none" xmlns="http://www.w3.org/2000/svg">
<path d="M22.8663 31.2668C23.9863 36.8668 22.3997 38.889 21.4663 39.2001C29.0886 39.8223 45.5463 41.0668 50.3997 41.0668C55.253 41.0668 56.7775 39.5112 56.933 38.7334L57.8663 36.4001C57.5552 32.3557 57.1197 22.7734 57.8663 16.8001C58.613 10.8268 53.1997 6.84455 50.3997 5.6001C47.133 5.13343 40.5997 4.4801 40.5997 5.6001C40.5997 6.7201 37.7997 7.62232 36.3997 7.93343H30.7997V5.6001H16.333L18.1997 7.93343C24.2663 10.7334 21.4663 24.2668 22.8663 31.2668Z" fill="#FFC6C6"/>
<path d="M47.25 3.5H41.678C41.3174 2.47991 40.6503 1.59616 39.7682 0.969653C38.8861 0.343147 37.832 0.00448519 36.75 0H33.25C32.3217 0 31.4315 0.36875 30.7751 1.02513C30.1187 1.6815 29.75 2.57174 29.75 3.5H12.25C9.0011 3.5 5.88526 4.79062 3.58794 7.08794C1.29062 9.38526 0 12.5011 0 15.75V36.75C0 38.1424 0.553123 39.4777 1.53769 40.4623C2.52225 41.4469 3.85761 42 5.25 42H22.75V54.25C22.75 54.7141 22.9344 55.1592 23.2626 55.4874C23.5907 55.8156 24.0359 56 24.5 56C24.9641 56 25.4093 55.8156 25.7374 55.4874C26.0656 55.1592 26.25 54.7141 26.25 54.25V42H29.75V54.25C29.75 54.7141 29.9344 55.1592 30.2626 55.4874C30.5907 55.8156 31.0359 56 31.5 56C31.9641 56 32.4092 55.8156 32.7374 55.4874C33.0656 55.1592 33.25 54.7141 33.25 54.25V42H36.75V54.25C36.75 54.7141 36.9344 55.1592 37.2626 55.4874C37.5908 55.8156 38.0359 56 38.5 56C38.9641 56 39.4092 55.8156 39.7374 55.4874C40.0656 55.1592 40.25 54.7141 40.25 54.25V42H54.25C55.6424 42 56.9777 41.4469 57.9623 40.4623C58.9469 39.4777 59.5 38.1424 59.5 36.75V15.75C59.5 12.5011 58.2094 9.38526 55.9121 7.08794C53.6147 4.79062 50.4989 3.5 47.25 3.5ZM33.25 3.5H36.75C37.2141 3.5 37.6592 3.68437 37.9874 4.01256C38.3156 4.34075 38.5 4.78587 38.5 5.25C38.5 5.71413 38.3156 6.15925 37.9874 6.48744C37.6592 6.81563 37.2141 7 36.75 7H33.25V3.5ZM3.5 36.75V15.75C3.5 13.4294 4.42187 11.2038 6.06282 9.56282C7.70376 7.92187 9.92936 7 12.25 7C14.5706 7 16.7962 7.92187 18.4372 9.56282C20.0781 11.2038 21 13.4294 21 15.75V36.75C21 37.2141 20.8156 37.6592 20.4874 37.9874C20.1593 38.3156 19.7141 38.5 19.25 38.5H5.25C4.78587 38.5 4.34075 38.3156 4.01256 37.9874C3.68437 37.6592 3.5 37.2141 3.5 36.75ZM56 36.75C56 37.2141 55.8156 37.6592 55.4874 37.9874C55.1592 38.3156 54.7141 38.5 54.25 38.5H24.178C24.3853 37.9395 24.4942 37.3475 24.5 36.75V15.75C24.4995 14.118 24.1716 12.5026 23.5355 10.9996C22.8994 9.49663 21.9682 8.13657 20.797 7H29.75V33.25C29.75 33.7141 29.9344 34.1592 30.2626 34.4874C30.5907 34.8156 31.0359 35 31.5 35C31.9641 35 32.4092 34.8156 32.7374 34.4874C33.0656 34.1592 33.25 33.7141 33.25 33.25V10.5H36.75C37.832 10.4955 38.8861 10.1569 39.7682 9.53035C40.6503 8.90384 41.3174 8.02009 41.678 7H47.25C49.5706 7 51.7962 7.92187 53.4372 9.56282C55.0781 11.2038 56 13.4294 56 15.75V36.75ZM17.5 19.25C17.5 19.7141 17.3156 20.1593 16.9874 20.4874C16.6593 20.8156 16.2141 21 15.75 21H8.75C8.28587 21 7.84075 20.8156 7.51256 20.4874C7.18437 20.1593 7 19.7141 7 19.25C7 18.7859 7.18437 18.3407 7.51256 18.0126C7.84075 17.6844 8.28587 17.5 8.75 17.5H15.75C16.2141 17.5 16.6593 17.6844 16.9874 18.0126C17.3156 18.3407 17.5 18.7859 17.5 19.25Z" fill="black"/>
</svg>
