<svg width="17" height="18" viewBox="0 0 17 18" fill="none" xmlns="http://www.w3.org/2000/svg">
<g clip-path="url(#clip0_1_1917)">
<path d="M0.249023 4.41614V16.2919C0.249023 16.5684 0.473178 16.7926 0.749727 16.7926H16.2503C16.5268 16.7926 16.751 16.5684 16.751 16.2919V4.41614H0.249023Z" fill="#F1F4F6"/>
<path d="M2.50528 3.04094H1.65989C1.64017 3.04094 1.6242 3.02497 1.6242 3.00525V1.24309C1.6242 1.22337 1.64017 1.2074 1.65989 1.2074H2.50528C2.525 1.2074 2.54097 1.22337 2.54097 1.24309V3.00525C2.54097 3.02494 2.52497 3.04094 2.50528 3.04094Z" fill="#D0E2E7"/>
<path d="M5.71426 3.04094H4.86888C4.84915 3.04094 4.83318 3.02497 4.83318 3.00525V1.24309C4.83318 1.22337 4.84915 1.2074 4.86888 1.2074H5.71426C5.73398 1.2074 5.74995 1.22337 5.74995 1.24309V3.00525C5.74995 3.02494 5.73395 3.04094 5.71426 3.04094Z" fill="#D0E2E7"/>
<path d="M8.92224 3.04094H8.07688C8.05716 3.04094 8.04119 3.02497 8.04119 3.00525V1.24309C8.04119 1.22337 8.05716 1.2074 8.07688 1.2074H8.92227C8.94199 1.2074 8.95796 1.22337 8.95796 1.24309V3.00525C8.95796 3.02494 8.94196 3.04094 8.92224 3.04094Z" fill="#D0E2E7"/>
<path d="M12.1314 3.04094H11.286C11.2663 3.04094 11.2503 3.02497 11.2503 3.00525V1.24309C11.2503 1.22337 11.2663 1.2074 11.286 1.2074H12.1314C12.1511 1.2074 12.1671 1.22337 12.1671 1.24309V3.00525C12.1671 3.02494 12.1511 3.04094 12.1314 3.04094Z" fill="#D0E2E7"/>
<path d="M15.3401 3.04094H14.4947C14.475 3.04094 14.459 3.02497 14.459 3.00525V1.24309C14.459 1.22337 14.475 1.2074 14.4947 1.2074H15.3401C15.3598 1.2074 15.3758 1.22337 15.3758 1.24309V3.00525C15.3758 3.02494 15.3598 3.04094 15.3401 3.04094Z" fill="#D0E2E7"/>
<path d="M16.2503 2.12415H15.3758V3.00522C15.3758 3.02495 15.3598 3.04092 15.3401 3.04092H14.4947C14.475 3.04092 14.459 3.02495 14.459 3.00522V2.12415H12.1671V3.00522C12.1671 3.02495 12.1511 3.04092 12.1314 3.04092H11.286C11.2663 3.04092 11.2503 3.02495 11.2503 3.00522V2.12415H8.95837V3.00522C8.95837 3.02495 8.9424 3.04092 8.92268 3.04092H8.07732C8.0576 3.04092 8.04163 3.02495 8.04163 3.00522V2.12415H5.74969V3.00522C5.74969 3.02495 5.73371 3.04092 5.71399 3.04092H4.86861C4.84888 3.04092 4.83291 3.02495 4.83291 3.00522V2.12415H2.54097V3.00522C2.54097 3.02495 2.525 3.04092 2.50528 3.04092H1.65989C1.64017 3.04092 1.6242 3.02495 1.6242 3.00522V2.12415H0.749727C0.473211 2.12415 0.249023 2.3483 0.249023 2.62485V4.41609H16.751V2.62485C16.751 2.3483 16.5268 2.12415 16.2503 2.12415Z" fill="#DD636E"/>
<path d="M15.4228 4.41614V13.5945C15.4228 14.994 14.2883 16.1285 12.8888 16.1285H0.249023V16.2919C0.249023 16.5684 0.473178 16.7926 0.749727 16.7926H16.2503C16.5268 16.7926 16.751 16.5684 16.751 16.2919V4.41614H15.4228Z" fill="#DFEAEF"/>
<path d="M4.33865 7.16646H1.20212C1.18223 7.16646 1.16609 7.15032 1.16609 7.13043V5.82741C1.16609 5.80752 1.18223 5.79138 1.20212 5.79138H4.33862C4.35851 5.79138 4.37464 5.80752 4.37464 5.82741V7.13043C4.37468 7.15032 4.35854 7.16646 4.33865 7.16646Z" fill="#9BD069"/>
<path d="M5.71376 8.54158H2.11886C2.09897 8.54158 2.08283 8.52544 2.08283 8.50555V7.20253C2.08283 7.18264 2.09897 7.1665 2.11886 7.1665H5.71373C5.73362 7.1665 5.74975 7.18264 5.74975 7.20253V8.50555C5.74979 8.52544 5.73365 8.54158 5.71376 8.54158Z" fill="#8BC852"/>
<path d="M7.0893 9.9167H3.03603C3.01614 9.9167 3 9.90056 3 9.88068V8.57765C3 8.55776 3.01614 8.54163 3.03603 8.54163H7.0893C7.10919 8.54163 7.12532 8.55776 7.12532 8.57765V9.88068C7.12532 9.90056 7.10919 9.9167 7.0893 9.9167Z" fill="#9BD069"/>
<path d="M12.5893 11.2917H7.12489V9.95265C7.12489 9.93276 7.14103 9.91663 7.16092 9.91663H12.5893C12.6092 9.91663 12.6253 9.93276 12.6253 9.95265V11.2557C12.6253 11.2756 12.6092 11.2917 12.5893 11.2917Z" fill="#4073C8"/>
<path d="M9.83908 12.6669H7.16092C7.14103 12.6669 7.12489 12.6507 7.12489 12.6308V11.2917H9.87511V12.6308C9.87511 12.6507 9.85897 12.6669 9.83908 12.6669Z" fill="#3B66C1"/>
<path d="M15.3755 14.0419H12.203C12.1831 14.0419 12.1669 14.0258 12.1669 14.0059V12.7029C12.1669 12.683 12.1831 12.6669 12.203 12.6669H15.3395C15.3594 12.6669 15.3755 12.683 15.3755 12.7029V14.0419H15.3755Z" fill="#E28424"/>
<path d="M15.3398 15.4171H13.12C13.1001 15.4171 13.084 15.401 13.084 15.3811V14.042H15.3758V15.3811C15.3758 15.401 15.3597 15.4171 15.3398 15.4171Z" fill="#DD6938"/>
<path d="M15.3755 15.381V14.084C15.2741 14.6024 15.0146 15.0641 14.6493 15.4171H15.3395C15.3594 15.4171 15.3755 15.401 15.3755 15.381Z" fill="#DD542E"/>
<path d="M16.2503 1.87518H15.6248V1.24309C15.6248 1.08607 15.4971 0.958374 15.3401 0.958374H14.4948C14.3377 0.958374 14.21 1.08611 14.21 1.24309V1.87515H12.4161V1.24309C12.4161 1.08607 12.2884 0.958374 12.1314 0.958374H11.286C11.129 0.958374 11.0013 1.08611 11.0013 1.24309V1.87515H9.20746V1.24309C9.20746 1.08607 9.07973 0.958374 8.92274 0.958374H8.07732C7.92031 0.958374 7.79261 1.08611 7.79261 1.24309V1.87515H5.99874V1.24309C5.99874 1.08607 5.87101 0.958374 5.71403 0.958374H4.86864C4.71162 0.958374 4.58392 1.08611 4.58392 1.24309V1.87515H2.78999V1.24309C2.78999 1.08607 2.66226 0.958374 2.50528 0.958374H1.65992C1.50291 0.958374 1.37521 1.08611 1.37521 1.24309V1.87515H0.749727C0.336314 1.87518 0 2.21146 0 2.62491V16.2919C0 16.7053 0.336314 17.0416 0.749727 17.0416H4.12927C4.2668 17.0416 4.3783 16.9302 4.3783 16.7926C4.3783 16.6551 4.2668 16.5436 4.12927 16.5436H3.24876V10.1657H5.50093V16.5436H5.29142C5.15389 16.5436 5.04239 16.6551 5.04239 16.7926C5.04239 16.9302 5.15389 17.0416 5.29142 17.0416H16.2503C16.6637 17.0416 17 16.7053 17 16.2919V2.62491C17 2.21146 16.6637 1.87518 16.2503 1.87518ZM14.7081 1.45642H15.1268V2.79195H14.7081V1.45642ZM11.4993 1.45642H11.9181V2.79195H11.4993V1.45642ZM8.29062 1.45642H8.70935V2.79195H8.29062V1.45642ZM5.08194 1.45642H5.50066V2.79195H5.08194V1.45642ZM1.87322 1.45642H2.29195V2.79195H1.87322V1.45642ZM0.749727 2.37323H1.37517V3.00528C1.37517 3.1623 1.50291 3.29 1.65989 3.29H2.50524C2.66226 3.29 2.78996 3.16227 2.78996 3.00528V2.37323H4.58386V3.00528C4.58386 3.1623 4.71159 3.29 4.86857 3.29H5.71396C5.87098 3.29 5.99868 3.16227 5.99868 3.00528V2.37323H7.79254V3.00528C7.79254 3.1623 7.92027 3.29 8.07726 3.29H8.92264C9.07966 3.29 9.20736 3.16227 9.20736 3.00528V2.37323H11.0012V3.00528C11.0012 3.1623 11.129 3.29 11.2859 3.29H12.1313C12.2883 3.29 12.416 3.16227 12.416 3.00528V2.37323H14.2099V3.00528C14.2099 3.1623 14.3377 3.29 14.4947 3.29H15.34C15.497 3.29 15.6247 3.16227 15.6247 3.00528V2.37323H16.2502C16.389 2.37323 16.5019 2.48612 16.5019 2.62491V4.16712H4.71033C4.5728 4.16712 4.4613 4.27859 4.4613 4.41615C4.4613 4.55371 4.5728 4.66517 4.71033 4.66517H5.50093V6.91744H4.6237V5.82738C4.6237 5.67023 4.49584 5.54233 4.33865 5.54233H3.24876V4.66517H3.54819C3.68571 4.66517 3.79721 4.55371 3.79721 4.41615C3.79721 4.27859 3.68571 4.16712 3.54819 4.16712H0.498047V2.62491C0.498047 2.48612 0.610937 2.37323 0.749727 2.37323ZM13.3327 15.1681V14.291H15.1265V15.1681C14.7374 15.1681 15.2975 15.1681 13.3327 15.1681ZM15.1265 13.793H12.416V12.9159H15.1265V13.793ZM12.203 12.4179C12.0458 12.4179 11.9179 12.5458 11.9179 12.7029V14.0059C11.9179 14.1631 12.0458 14.291 12.203 14.291H12.8346V15.3811C12.8346 15.5382 12.9625 15.6661 13.1197 15.6661H13.7515V16.5436H11.4994V11.5408H12.5893C12.7464 11.5408 12.8743 11.4129 12.8743 11.2557V9.9527C12.8743 9.79555 12.7464 9.66765 12.5893 9.66765H11.4994V4.66517H13.7515V12.4179H12.203ZM3.24859 9.66765V8.79059H6.87587V9.66765H3.24859ZM4.12565 6.04038V6.91744H1.41512V6.04038H4.12565ZM2.33186 7.41549H5.50076V8.29255H2.33186V7.41549ZM8.25114 4.66517V9.66765H7.37392V8.5776C7.37392 8.42044 7.24605 8.29255 7.08887 8.29255H5.99897V4.66517H8.25114ZM10.4245 9.66765C10.2869 9.66765 10.1755 9.77912 10.1755 9.91668C10.1755 10.0542 10.2869 10.1657 10.4245 10.1657H12.3763V11.0428H7.37392V10.1657H9.26238C9.39994 10.1657 9.5114 10.0542 9.5114 9.91668C9.5114 9.77912 9.39994 9.66765 9.26238 9.66765H8.74919V4.66517H11.0014V9.66765H10.4245ZM7.37392 11.5408H9.62608V12.4179H7.37392V11.5408ZM9.83908 12.9159C9.99623 12.9159 10.1241 12.788 10.1241 12.6308V11.5408H11.0014V16.5436H8.74919V12.9159H9.83908ZM0.749727 16.5436C0.610937 16.5436 0.498047 16.4307 0.498047 16.2919V4.66517H2.75071V5.54233H1.20212C1.04494 5.54233 0.91707 5.67023 0.91707 5.82738V7.1304C0.91707 7.28759 1.04497 7.41549 1.20212 7.41549H1.83381V8.50551C1.83381 8.6627 1.96171 8.79059 2.11886 8.79059H2.75055C2.75055 10.15 2.75071 11.0394 2.75071 16.5436H0.749727ZM5.99897 10.1657H6.87587V12.6308C6.87587 12.788 7.00377 12.9159 7.16092 12.9159H8.25111V16.5436H5.99894V10.1657H5.99897ZM16.502 16.2919C16.502 16.4307 16.3891 16.5436 16.2503 16.5436H14.2496V15.6661H15.3395C15.4967 15.6661 15.6246 15.5382 15.6246 15.3811V12.7029C15.6246 12.5458 15.4967 12.4179 15.3395 12.4179H14.2496V4.66517H16.502V16.2919Z" fill="black"/>
</g>
<defs>
<clipPath id="clip0_1_1917">
<rect width="17" height="17" fill="white" transform="translate(0 0.5)"/>
</clipPath>
</defs>
</svg>
