<svg width="17" height="18" viewBox="0 0 17 18" fill="none" xmlns="http://www.w3.org/2000/svg">
<g clip-path="url(#clip0_1_1866)">
<path d="M16.0574 17.251H1.77235C1.45904 17.251 1.20507 16.997 1.20507 16.6837V1.3163C1.20507 1.00299 1.45904 0.749023 1.77235 0.749023H16.0574C16.3707 0.749023 16.6246 1.00299 16.6246 1.3163V16.6837C16.6246 16.997 16.3706 17.251 16.0574 17.251Z" fill="#95D6A4"/>
<path d="M16.058 0.749023H15.3271C15.6405 0.749023 15.8944 1.00299 15.8944 1.3163V16.6837C15.8944 16.997 15.6405 17.251 15.3271 17.251H16.058C16.3713 17.251 16.6253 16.997 16.6253 16.6837V1.3163C16.6253 1.00299 16.3713 0.749023 16.058 0.749023Z" fill="#78C2A4"/>
<path d="M0.374962 4.03894H1.71786V5.38184H0.374962V4.03894Z" fill="#FFE07D"/>
<path d="M0.374962 6.58997H1.71786V9.29778H0.374962V6.58997Z" fill="#80B4FB"/>
<path d="M0.374962 10.5057H1.71786V11.8596H0.374962V10.5057Z" fill="#F9F6F9"/>
<path d="M0.374962 13.0677H2.34162V14.4216H0.374962V13.0677Z" fill="#F9F6F9"/>
<path d="M9.55934 9.24823H9.1285C8.97298 9.24823 8.84687 9.12215 8.84687 8.9666V0.749023H9.84097V8.9666C9.84097 9.12215 9.7149 9.24823 9.55934 9.24823Z" fill="#80B4FB"/>
<path d="M11.6002 9.24823H11.1693C11.0138 9.24823 10.8877 9.12215 10.8877 8.9666V0.749023H11.8818V8.9666C11.8818 9.12215 11.7557 9.24823 11.6002 9.24823Z" fill="#80B4FB"/>
<path d="M6.92012 10.5058H3.45637C3.29826 10.5058 3.1701 10.3776 3.1701 10.2195V5.66811C3.1701 5.51 3.29826 5.38184 3.45637 5.38184H6.92012C7.07824 5.38184 7.2064 5.51 7.2064 5.66811V10.2195C7.2064 10.3776 7.0782 10.5058 6.92012 10.5058Z" fill="#F9F6F9"/>
<path d="M6.92043 5.38184H6.20507C6.36318 5.38184 6.49135 5.51 6.49135 5.66811V10.2195C6.49135 10.3776 6.36318 10.5057 6.20507 10.5057H6.92043C7.07855 10.5057 7.20671 10.3776 7.20671 10.2195V5.66811C7.20671 5.51 7.07855 5.38184 6.92043 5.38184Z" fill="#DDDAEC"/>
<path d="M5.27766 9.51437H4.28349C4.15227 9.51437 4.04589 9.40799 4.04589 9.27677V6.79982C4.04589 6.56424 4.23684 6.37329 4.47242 6.37329H5.90271C6.25194 6.37329 6.45318 6.77007 6.24683 7.05183L5.80536 7.65467C5.61686 7.91206 5.51523 8.22284 5.51523 8.54189V9.2768C5.51526 9.40799 5.40888 9.51437 5.27766 9.51437Z" fill="#30579D"/>
<path d="M5.90302 6.37329H5.25403C5.60326 6.37329 5.8045 6.77007 5.59814 7.05183L5.15668 7.65467C4.96818 7.91206 4.86655 8.22284 4.86655 8.54189V9.2768C4.86655 9.40802 4.76016 9.51441 4.62894 9.51441H5.27793C5.40915 9.51441 5.51553 9.40802 5.51553 9.2768V8.54189C5.51553 8.22284 5.61717 7.91209 5.80566 7.65467L6.24713 7.05183C6.45346 6.77004 6.25225 6.37329 5.90302 6.37329Z" fill="#26457D"/>
<path d="M4.10589 13.3627C4.43934 13.3627 4.70966 13.0924 4.70966 12.7589C4.70966 12.4255 4.43934 12.1552 4.10589 12.1552C3.77244 12.1552 3.50213 12.4255 3.50213 12.7589C3.50213 13.0924 3.77244 13.3627 4.10589 13.3627Z" fill="#DD636E"/>
<path d="M8.52291 13.3627C8.85636 13.3627 9.12667 13.0924 9.12667 12.7589C9.12667 12.4255 8.85636 12.1552 8.52291 12.1552C8.18946 12.1552 7.91914 12.4255 7.91914 12.7589C7.91914 13.0924 8.18946 13.3627 8.52291 13.3627Z" fill="#DD636E"/>
<path d="M10.2849 16.0552H4.13608C4.04743 16.0552 3.97558 15.9833 3.97558 15.8947V14.9806C3.97558 14.8919 4.04743 14.8201 4.13608 14.8201H10.2849C10.3736 14.8201 10.4454 14.8919 10.4454 14.9806V15.8947C10.4454 15.9833 10.3736 16.0552 10.2849 16.0552Z" fill="#FFE07D"/>
<path d="M10.2844 14.8201H9.54582C9.63447 14.8201 9.70633 14.8919 9.70633 14.9806V15.8947C9.70633 15.9833 9.63447 16.0552 9.54582 16.0552H10.2844C10.3731 16.0552 10.4449 15.9833 10.4449 15.8947V14.9806C10.4449 14.8919 10.3731 14.8201 10.2844 14.8201Z" fill="#FFD064"/>
<path d="M14.1403 13.8344H11.3289C11.2319 13.8344 11.1533 13.7557 11.1533 13.6587V10.8473C11.1533 10.7503 11.2319 10.6718 11.3289 10.6718H14.1403C14.2373 10.6718 14.316 10.7504 14.316 10.8473V13.6587C14.3159 13.7558 14.2373 13.8344 14.1403 13.8344Z" fill="#30579D"/>
<path d="M14.1399 10.6718H13.4813C13.5783 10.6718 13.6569 10.7504 13.6569 10.8474V13.6588C13.6569 13.7558 13.5783 13.8344 13.4813 13.8344H14.1399C14.2369 13.8344 14.3155 13.7558 14.3155 13.6588V10.8474C14.3155 10.7503 14.2369 10.6718 14.1399 10.6718Z" fill="#26457D"/>
<path d="M15.4485 3.03171H13.1972C13.1131 3.03171 13.0449 2.96355 13.0449 2.87948V2.24965C13.0449 2.16558 13.1131 2.09741 13.1972 2.09741H15.4485C15.5325 2.09741 15.6007 2.16558 15.6007 2.24965V2.87948C15.6007 2.96355 15.5325 3.03171 15.4485 3.03171Z" fill="#FFE07D"/>
<path d="M15.4476 2.09741H14.8018C14.8858 2.09741 14.954 2.16558 14.954 2.24965V2.87948C14.954 2.96355 14.8859 3.03171 14.8018 3.03171H15.4476C15.5316 3.03171 15.5998 2.96355 15.5998 2.87948V2.24962C15.5998 2.16554 15.5316 2.09741 15.4476 2.09741Z" fill="#FFD064"/>
<path d="M14.3221 5.84455C14.8397 5.84455 15.2593 5.42491 15.2593 4.90726C15.2593 4.38961 14.8397 3.96997 14.3221 3.96997C13.8044 3.96997 13.3848 4.38961 13.3848 4.90726C13.3848 5.42491 13.8044 5.84455 14.3221 5.84455Z" fill="#DD636E"/>
<path d="M14.322 3.96997C14.2074 3.96997 14.0976 3.99062 13.9961 4.02828C14.3531 4.16069 14.6075 4.50424 14.6075 4.90729C14.6075 5.31035 14.3531 5.6539 13.9961 5.78631C14.0976 5.82397 14.2074 5.84462 14.322 5.84462C14.8397 5.84462 15.2593 5.42497 15.2593 4.90733C15.2593 4.38959 14.8397 3.96997 14.322 3.96997Z" fill="#DA4A54"/>
<path d="M16.0578 0.5H1.77271C1.32261 0.5 0.956412 0.866197 0.956412 1.3163V3.78993H0.374992C0.237432 3.78993 0.125969 3.90143 0.125969 4.03895V5.38186C0.125969 5.51938 0.237432 5.63088 0.374992 5.63088H0.956445V6.34089H0.374992C0.237432 6.34089 0.125969 6.45239 0.125969 6.58992V9.2977C0.125969 9.43526 0.237432 9.54672 0.374992 9.54672H0.956445V10.2567H0.374992C0.237432 10.2567 0.125969 10.3682 0.125969 10.5058V11.8597C0.125969 11.9972 0.237432 12.1087 0.374992 12.1087H0.956445V12.8187H0.374992C0.237432 12.8187 0.125969 12.9302 0.125969 13.0677V14.4216C0.125969 14.5592 0.237432 14.6706 0.374992 14.6706H0.956445V16.6837C0.956412 17.1338 1.32261 17.5 1.77271 17.5H10.6551C10.7927 17.5 10.9041 17.3885 10.9041 17.251C10.9041 17.1134 10.7927 17.002 10.6551 17.002H1.77271C1.59723 17.002 1.45446 16.8592 1.45446 16.6837V14.6706H2.34161C2.47917 14.6706 2.59064 14.5592 2.59064 14.4216V13.0677C2.59064 12.9302 2.47917 12.8187 2.34161 12.8187H1.45446V12.1087H1.71786C1.85542 12.1087 1.96688 11.9972 1.96688 11.8597V10.5058C1.96688 10.3682 1.85542 10.2567 1.71786 10.2567H1.45446V9.54672H1.71786C1.85542 9.54672 1.96688 9.43526 1.96688 9.2977V6.58992C1.96688 6.45239 1.85542 6.34089 1.71786 6.34089H1.45446V5.63088H1.71786C1.85542 5.63088 1.96688 5.51938 1.96688 5.38186V4.03895C1.96688 3.90143 1.85542 3.78993 1.71786 3.78993H1.45446V1.3163C1.45446 1.14079 1.59723 0.998047 1.77271 0.998047H8.59785V8.96663C8.59785 9.25922 8.83588 9.49725 9.12846 9.49725H9.55934C9.85193 9.49725 10.09 9.25922 10.09 8.96663V0.998047H10.6383V8.96663C10.6383 9.25922 10.8763 9.49725 11.1689 9.49725H11.5998C11.8924 9.49725 12.1304 9.25922 12.1304 8.96663V4.15048C12.1304 4.01296 12.019 3.90146 11.8814 3.90146C11.7438 3.90146 11.6324 4.01296 11.6324 4.15048V8.96663C11.6324 8.98459 11.6178 8.9992 11.5998 8.9992H11.1689C11.1509 8.9992 11.1363 8.98459 11.1363 8.96663V0.998047H11.6324V3.15482C11.6324 3.29235 11.7438 3.40385 11.8814 3.40385C12.019 3.40385 12.1304 3.29235 12.1304 3.15482V0.998047H16.0577C16.2332 0.998047 16.376 1.14082 16.376 1.3163V16.6837C16.376 16.8592 16.2332 17.002 16.0577 17.002H11.6507C11.5132 17.002 11.4017 17.1134 11.4017 17.251C11.4017 17.3885 11.5132 17.5 11.6507 17.5H16.0578C16.5079 17.5 16.8741 17.1338 16.8741 16.6837V1.3163C16.8741 0.866197 16.5079 0.5 16.0578 0.5ZM2.09259 14.1726H0.624016V13.3167H2.09259V14.1726ZM1.46884 11.6106H0.624016V10.7548H1.46884V11.6106ZM1.46884 9.04868H0.624016V6.83894H1.46884V9.04868ZM1.46884 5.13283H0.624016V4.28798H1.46884V5.13283ZM9.59195 8.96663C9.59195 8.98459 9.57734 8.9992 9.55934 8.9992H9.12846C9.1105 8.9992 9.09589 8.98459 9.09589 8.96663V0.998047H9.59195V8.96663Z" fill="black"/>
<path d="M5.27769 9.76336C5.54601 9.76336 5.76429 9.54509 5.76429 9.27677V8.54185C5.76429 8.27387 5.84799 8.01797 6.0063 7.80179L6.44777 7.19895C6.59898 6.9925 6.62099 6.72246 6.50521 6.49425C6.38947 6.26605 6.15864 6.12427 5.90271 6.12427H4.47242C4.09991 6.12427 3.79687 6.42731 3.79687 6.79982V9.27677C3.79687 9.54509 4.01514 9.76336 4.28346 9.76336H5.27769ZM4.29495 6.79979C4.29495 6.7019 4.37457 6.62228 4.47245 6.62228H5.90274C6.00112 6.62228 6.04621 6.69025 6.06105 6.7195C6.0759 6.74875 6.10409 6.82529 6.04598 6.90467L5.60451 7.50751C5.38321 7.80966 5.26624 8.16732 5.26624 8.54185V9.26532H4.29495V6.79979Z" fill="black"/>
<path d="M12.8223 7.19836C12.8223 7.33589 12.9337 7.44739 13.0713 7.44739H13.2567C13.3942 7.44739 13.5057 7.33589 13.5057 7.19836C13.5057 7.06084 13.3942 6.94934 13.2567 6.94934H13.0713C12.9337 6.94934 12.8223 7.06084 12.8223 7.19836Z" fill="black"/>
<path d="M14.415 7.44739C14.5526 7.44739 14.6641 7.33589 14.6641 7.19836C14.6641 7.06084 14.5526 6.94934 14.415 6.94934H14.2296C14.0921 6.94934 13.9806 7.06084 13.9806 7.19836C13.9806 7.33589 14.0921 7.44739 14.2296 7.44739H14.415Z" fill="black"/>
<path d="M15.3887 7.44739H15.5741C15.7116 7.44739 15.8231 7.33589 15.8231 7.19836C15.8231 7.06084 15.7116 6.94934 15.5741 6.94934H15.3887C15.2511 6.94934 15.1396 7.06084 15.1396 7.19836C15.1396 7.33589 15.2511 7.44739 15.3887 7.44739Z" fill="black"/>
<path d="M13.7429 8.66833H13.9027C14.0403 8.66833 14.1518 8.55684 14.1518 8.41931C14.1518 8.28178 14.0403 8.17029 13.9027 8.17029H13.7429C13.6054 8.17029 13.4939 8.28178 13.4939 8.41931C13.4939 8.55684 13.6054 8.66833 13.7429 8.66833Z" fill="black"/>
<path d="M14.7422 8.66833H14.902C15.0396 8.66833 15.151 8.55684 15.151 8.41931C15.151 8.28178 15.0396 8.17029 14.902 8.17029H14.7422C14.6046 8.17029 14.4932 8.28178 14.4932 8.41931C14.4932 8.55684 14.6046 8.66833 14.7422 8.66833Z" fill="black"/>
<path d="M3.75191 2.8136C3.88947 2.8136 4.00094 2.7021 4.00094 2.56458C4.00094 2.42705 3.88947 2.31555 3.75191 2.31555H3.50216C3.3646 2.31555 3.25314 2.42705 3.25314 2.56458C3.25314 2.7021 3.3646 2.8136 3.50216 2.8136H3.75191Z" fill="black"/>
<path d="M5.31313 2.31555H5.06334C4.92578 2.31555 4.81432 2.42705 4.81432 2.56458C4.81432 2.7021 4.92578 2.8136 5.06334 2.8136H5.31313C5.45069 2.8136 5.56215 2.7021 5.56215 2.56458C5.56215 2.42705 5.45069 2.31555 5.31313 2.31555Z" fill="black"/>
<path d="M6.87478 2.8136C7.01234 2.8136 7.1238 2.7021 7.1238 2.56458C7.1238 2.42705 7.01234 2.31555 6.87478 2.31555H6.62499C6.48743 2.31555 6.37597 2.42705 6.37597 2.56458C6.37597 2.7021 6.48743 2.8136 6.62499 2.8136H6.87478Z" fill="black"/>
<path d="M4.62254 3.78992H4.40722C4.26966 3.78992 4.1582 3.90141 4.1582 4.03894C4.1582 4.17647 4.26966 4.28796 4.40722 4.28796H4.62254C4.7601 4.28796 4.87156 4.17647 4.87156 4.03894C4.87156 3.90141 4.7601 3.78992 4.62254 3.78992Z" fill="black"/>
<path d="M5.7539 4.28796H5.96925C6.10681 4.28796 6.21828 4.17647 6.21828 4.03894C6.21828 3.90141 6.10681 3.78992 5.96925 3.78992H5.7539C5.61634 3.78992 5.50488 3.90141 5.50488 4.03894C5.50488 4.17647 5.61634 4.28796 5.7539 4.28796Z" fill="black"/>
<path d="M4.10589 13.6117C4.57612 13.6117 4.95868 13.2292 4.95868 12.7589C4.95868 12.2887 4.57615 11.9061 4.10589 11.9061C3.63564 11.9061 3.25311 12.2887 3.25311 12.7589C3.25311 13.2292 3.63567 13.6117 4.10589 13.6117ZM4.10589 12.4042C4.30149 12.4042 4.46064 12.5634 4.46064 12.759C4.46064 12.9546 4.30149 13.1137 4.10589 13.1137C3.91029 13.1137 3.75115 12.9546 3.75115 12.759C3.75115 12.5634 3.91029 12.4042 4.10589 12.4042Z" fill="black"/>
<path d="M9.37569 12.7589C9.37569 12.2887 8.99316 11.9061 8.5229 11.9061C8.05265 11.9061 7.67008 12.2887 7.67008 12.7589C7.67008 13.2292 8.05265 13.6117 8.5229 13.6117C8.99316 13.6117 9.37569 13.2292 9.37569 12.7589ZM8.16816 12.7589C8.16816 12.5633 8.3273 12.4042 8.52294 12.4042C8.71854 12.4042 8.87768 12.5633 8.87768 12.7589C8.87768 12.9546 8.71854 13.1137 8.52294 13.1137C8.3273 13.1137 8.16816 12.9546 8.16816 12.7589Z" fill="black"/>
<path d="M10.9179 15.1886H10.694V14.9805C10.694 14.7547 10.5102 14.571 10.2844 14.571H6.95459V12.7588C6.95459 12.6943 6.92952 12.6323 6.88473 12.5859L6.08626 11.759V10.7548H6.92013C7.2153 10.7548 7.45543 10.5146 7.45543 10.2195V5.66811C7.45543 5.37294 7.2153 5.13281 6.92013 5.13281H3.45638C3.16117 5.13281 2.92104 5.37294 2.92104 5.66811V8.31895C2.92104 8.45648 3.03251 8.56797 3.17007 8.56797C3.30763 8.56797 3.41909 8.45648 3.41909 8.31895V5.66811C3.41909 5.64756 3.43582 5.63086 3.45638 5.63086H6.92009C6.94065 5.63086 6.95735 5.64756 6.95735 5.66811V10.2195C6.95735 10.24 6.94065 10.2567 6.92009 10.2567H3.45638C3.43582 10.2567 3.41909 10.24 3.41909 10.2195V9.31461C3.41909 9.17705 3.30763 9.06559 3.17007 9.06559C3.03251 9.06559 2.92104 9.17705 2.92104 9.31461V10.2195C2.92104 10.5146 3.16117 10.7548 3.45638 10.7548H5.58818V11.8596C5.58818 11.9241 5.61325 11.9862 5.65804 12.0326L6.45651 12.8594V14.571H4.13561C3.90977 14.571 3.72605 14.7547 3.72605 14.9805V15.1886H3.50213C3.36457 15.1886 3.25311 15.3 3.25311 15.4376C3.25311 15.5752 3.36457 15.6866 3.50213 15.6866H3.72605V15.8946C3.72605 16.1205 3.90977 16.3042 4.13561 16.3042H10.2844C10.5102 16.3042 10.694 16.1205 10.694 15.8946V15.6866H10.9179C11.0555 15.6866 11.1669 15.5752 11.1669 15.4376C11.1669 15.3 11.0555 15.1886 10.9179 15.1886ZM10.1959 15.8061H4.2241V15.0691H10.1959V15.8061H10.1959Z" fill="black"/>
<path d="M11.669 14.1562C11.669 14.2938 11.7805 14.4053 11.918 14.4053C12.0556 14.4053 12.1671 14.2938 12.1671 14.1562V14.0835H12.4852V14.1562C12.4852 14.2938 12.5967 14.4052 12.7342 14.4052C12.8718 14.4052 12.9833 14.2938 12.9833 14.1562V14.0835H13.3014V14.1562C13.3014 14.2938 13.4129 14.4052 13.5504 14.4052C13.688 14.4052 13.7995 14.2938 13.7995 14.1562V14.0835H14.1399C14.3741 14.0835 14.5646 13.893 14.5646 13.6589V13.3184H14.6373C14.7748 13.3184 14.8863 13.2069 14.8863 13.0693C14.8863 12.9318 14.7748 12.8203 14.6373 12.8203H14.5646V12.5022H14.6373C14.7748 12.5022 14.8863 12.3907 14.8863 12.2531C14.8863 12.1156 14.7748 12.0041 14.6373 12.0041H14.5646V11.686H14.6373C14.7748 11.686 14.8863 11.5745 14.8863 11.437C14.8863 11.2994 14.7748 11.1879 14.6373 11.1879H14.5646V10.8474C14.5646 10.6133 14.3741 10.4228 14.1399 10.4228H13.7995V10.3501C13.7995 10.2125 13.688 10.1011 13.5504 10.1011C13.4129 10.1011 13.3014 10.2125 13.3014 10.3501V10.4228H12.9833V10.3501C12.9833 10.2125 12.8718 10.1011 12.7342 10.1011C12.5967 10.1011 12.4852 10.2125 12.4852 10.3501V10.4228H12.1671V10.3501C12.1671 10.2125 12.0556 10.1011 11.918 10.1011C11.7805 10.1011 11.669 10.2125 11.669 10.3501V10.4228H11.3285C11.0944 10.4228 10.9039 10.6133 10.9039 10.8474V11.1879H10.8312C10.6936 11.1879 10.5822 11.2994 10.5822 11.437C10.5822 11.5745 10.6936 11.686 10.8312 11.686H10.9039V12.0041H10.8312C10.6936 12.0041 10.5822 12.1156 10.5822 12.2531C10.5822 12.3907 10.6936 12.5022 10.8312 12.5022H10.9039V12.8203H10.8312C10.6936 12.8203 10.5822 12.9318 10.5822 13.0693C10.5822 13.2069 10.6936 13.3184 10.8312 13.3184H10.9039V13.6589C10.9039 13.893 11.0944 14.0835 11.3285 14.0835H11.669V14.1562ZM11.402 10.9209H14.0665V13.5854H11.402V10.9209Z" fill="black"/>
<path d="M12.1084 13.0122C12.246 13.0122 12.3574 12.9007 12.3574 12.7632V11.7429C12.3574 11.6054 12.246 11.4939 12.1084 11.4939C11.9708 11.4939 11.8594 11.6054 11.8594 11.7429V12.7632C11.8594 12.9007 11.9709 13.0122 12.1084 13.0122Z" fill="black"/>
<path d="M13.3594 13.0122C13.4969 13.0122 13.6084 12.9007 13.6084 12.7632V11.7429C13.6084 11.6054 13.4969 11.4939 13.3594 11.4939C13.2218 11.4939 13.1104 11.6054 13.1104 11.7429V12.7632C13.1104 12.9007 13.2218 13.0122 13.3594 13.0122Z" fill="black"/>
<path d="M15.8497 2.24965C15.8497 2.02838 15.6697 1.84839 15.4485 1.84839H13.1972C12.9759 1.84839 12.7959 2.02838 12.7959 2.24965V2.87948C12.7959 3.10074 12.9759 3.28071 13.1972 3.28071H15.4485C15.6697 3.28071 15.8497 3.10071 15.8497 2.87948V2.24965ZM15.3517 2.78269H13.2939V2.34644H15.3517V2.78269Z" fill="black"/>
<path d="M14.3221 6.09358C14.9762 6.09358 15.5084 5.5614 15.5084 4.90726C15.5084 4.25313 14.9762 3.72095 14.3221 3.72095C13.6679 3.72095 13.1357 4.25313 13.1357 4.90726C13.1357 5.5614 13.6679 6.09358 14.3221 6.09358ZM14.3221 4.21896C14.7016 4.21896 15.0103 4.52772 15.0103 4.90723C15.0103 5.28674 14.7016 5.5955 14.3221 5.5955C13.9425 5.5955 13.6338 5.28674 13.6338 4.90723C13.6338 4.52772 13.9425 4.21896 14.3221 4.21896Z" fill="black"/>
<path d="M12.5264 15.8378C12.3889 15.8378 12.2774 15.9492 12.2774 16.0868C12.2774 16.2244 12.3889 16.3358 12.5264 16.3358H14.4764C14.614 16.3358 14.7255 16.2244 14.7255 16.0868C14.7255 15.9492 14.614 15.8378 14.4764 15.8378H12.5264Z" fill="black"/>
</g>
<defs>
<clipPath id="clip0_1_1866">
<rect width="17" height="17" fill="white" transform="translate(0 0.5)"/>
</clipPath>
</defs>
</svg>
