<svg width="20" height="22" viewBox="0 0 20 22" fill="none" xmlns="http://www.w3.org/2000/svg">
<path d="M10.1687 17.3535C9.6485 17.3535 9.23337 16.8335 9.29169 16.2189C9.33644 15.747 9.66709 15.3685 10.0759 15.3201C10.2835 15.2956 10.4782 15.3546 10.6383 15.4711V11.7418H8.23734C8.11294 11.7418 8.03053 11.8857 8.07478 12.0195C8.1295 12.1851 8.15481 12.3673 8.14325 12.5579C8.10556 13.1785 7.66994 13.6808 7.13262 13.7229C6.49647 13.7729 5.967 13.1916 5.967 12.4674C5.967 12.3091 5.9924 12.1577 6.03865 12.0182C6.08284 11.885 5.99969 11.7418 5.87578 11.7418H4.93331C4.83644 11.7418 4.7579 11.8322 4.7579 11.9438V17.7485C4.7579 18.1825 5.06247 18.5343 5.43819 18.5343H10.6383V17.197C10.5023 17.296 10.3413 17.3535 10.1687 17.3535Z" fill="#7A6D79"/>
<path d="M14.7191 11.7418C14.872 11.4848 14.9617 11.1736 14.9617 10.8382C14.9617 9.95596 14.3302 9.23293 13.5665 9.24041C12.8081 9.24786 12.1953 9.96031 12.1953 10.8381C12.1953 11.1736 12.285 11.4847 12.4379 11.7418H10.6383V15.4711C10.4782 15.3546 10.2836 15.2956 10.076 15.3201C9.66712 15.3685 9.3365 15.747 9.29172 16.2189C9.2334 16.8335 9.64853 17.3535 10.1687 17.3535C10.3414 17.3535 10.5023 17.296 10.6383 17.1971V18.5343H15.8384C16.2141 18.5343 16.5187 18.1825 16.5187 17.7486V11.7418H14.7191Z" fill="#FFD15B"/>
<path d="M15.2682 11.7418V17.7485C15.2682 18.1825 14.9636 18.5343 14.5879 18.5343H15.8379C16.2136 18.5343 16.5182 18.1825 16.5182 17.7485V11.7418H15.2682Z" fill="#FFC344"/>
<path d="M6.31128 2.8012C6.4315 2.79303 6.54772 2.80753 6.65719 2.84121C6.76947 2.87579 6.88037 2.78231 6.88037 2.64845V0.839053C6.88037 0.727508 6.80184 0.637085 6.70497 0.637085H1.68028C1.30456 0.637085 1 0.988883 1 1.42286V7.22762C1 7.33917 1.07853 7.42959 1.17541 7.42959H2.40869C2.26922 7.65739 2.19331 7.94086 2.21184 8.2457C2.24953 8.86625 2.68516 9.36853 3.22247 9.4107C3.85863 9.46061 4.38809 8.87931 4.38809 8.15521C4.38809 7.88491 4.31406 7.63469 4.1885 7.42959H6.705C6.80188 7.42959 6.88041 7.33917 6.88041 7.22762V5.4678C6.88041 5.33474 6.77072 5.23853 6.65916 5.27314C6.56913 5.30106 6.4745 5.316 6.37684 5.316C5.75041 5.316 5.24747 4.70531 5.28984 3.9712C5.32597 3.34431 5.76834 2.83812 6.31128 2.8012Z" fill="#C8EFFE"/>
<path d="M6.31128 2.8012C6.4315 2.79303 6.54772 2.80753 6.65719 2.84121C6.7695 2.87579 6.88037 2.78231 6.88037 2.64845V0.839053C6.88037 0.727508 6.80184 0.637085 6.70497 0.637085H5.45497C5.55184 0.637085 5.63034 0.727508 5.63034 0.839053V2.64849C5.63034 2.78234 5.51947 2.87583 5.40716 2.84125C5.29769 2.80757 5.18147 2.79307 5.06125 2.80123C4.51831 2.83815 4.07594 3.34435 4.03975 3.9712C3.99737 4.70531 4.50031 5.316 5.12675 5.316C5.22441 5.316 5.31903 5.30106 5.40906 5.27314C5.52066 5.23853 5.63031 5.33474 5.63031 5.4678V7.22762C5.63031 7.33917 5.55178 7.42959 5.45494 7.42959H6.70494C6.80181 7.42959 6.88034 7.33917 6.88034 7.22762V5.4678C6.88034 5.33474 6.77066 5.23853 6.65909 5.27314C6.56906 5.30106 6.47444 5.316 6.37678 5.316C5.75034 5.316 5.24741 4.70531 5.28978 3.9712C5.32597 3.34431 5.76834 2.83812 6.31128 2.8012Z" fill="#99E6FC"/>
<path d="M10.638 5.15119V7.2537C10.4694 7.15194 10.275 7.09934 10.0689 7.11337C9.52598 7.15029 9.0836 7.65648 9.04742 8.28333C9.00504 9.01744 9.50798 9.62813 10.1344 9.62813C10.3161 9.62813 10.4874 9.57646 10.638 9.48557V11.7418H12.4375C12.2846 11.4847 12.1949 11.1736 12.1949 10.8381C12.1949 9.95593 12.8264 9.2329 13.5902 9.24039C14.3486 9.24783 14.9614 9.96032 14.9614 10.8381C14.9614 11.1736 14.8717 11.4847 14.7188 11.7418H16.5184V5.735C16.5184 5.30102 16.2138 4.94922 15.8381 4.94922H10.8134C10.7165 4.94922 10.638 5.03964 10.638 5.15119Z" fill="#FD8087"/>
<path d="M15.8379 4.94922H14.5879C14.9636 4.94922 15.2682 5.30102 15.2682 5.735V11.7417H16.5182V5.735C16.5182 5.30102 16.2136 4.94922 15.8379 4.94922Z" fill="#FE646F"/>
<path d="M5.84375 10.0318C6.17326 10.0318 6.44037 9.72421 6.44037 9.34481C6.44037 8.9654 6.17326 8.65784 5.84375 8.65784C5.51424 8.65784 5.24712 8.9654 5.24712 9.34481C5.24712 9.72421 5.51424 10.0318 5.84375 10.0318Z" fill="#6FD7A3"/>
<path d="M15.004 3.39616C15.3335 3.39616 15.6006 3.08859 15.6006 2.70919C15.6006 2.32978 15.3335 2.02222 15.004 2.02222C14.6745 2.02222 14.4074 2.32978 14.4074 2.70919C14.4074 3.08859 14.6745 3.39616 15.004 3.39616Z" fill="#6FD7A3"/>
<path d="M8.4815 2.01103C8.811 2.01103 9.07812 1.70346 9.07812 1.32406C9.07812 0.944653 8.811 0.637085 8.4815 0.637085C8.15199 0.637085 7.88487 0.944653 7.88487 1.32406C7.88487 1.70346 8.15199 2.01103 8.4815 2.01103Z" fill="#FFD15B"/>
<path d="M1 4.07635V8.27521C1 8.40449 1.09101 8.50929 1.20329 8.50929H2.6326C2.47096 8.7733 2.38299 9.10183 2.40447 9.45512C2.44815 10.1743 2.95301 10.7565 3.57573 10.8053C4.31301 10.8631 4.92664 10.1895 4.92664 9.35024C4.92664 9.03698 4.84084 8.74699 4.69532 8.50929H7.61182C7.72409 8.50929 7.81511 8.40449 7.81511 8.27521V6.23567C7.81511 6.08145 7.68798 5.96994 7.55869 6.01006C7.45435 6.04242 7.34468 6.05973 7.2315 6.05973C6.50549 6.05973 5.92261 5.35196 5.97172 4.50117C6.01366 3.77468 6.52635 3.18802 7.15559 3.14523C7.29492 3.13577 7.42961 3.15257 7.55648 3.19161C7.68664 3.23168 7.81514 3.12334 7.81514 2.96821V0.871157C7.81514 0.741881 7.72413 0.637085 7.61185 0.637085H1.78841C1.35297 0.637085 1 1.0448 1 1.54777V2.82747" stroke="black" stroke-width="0.5" stroke-miterlimit="10" stroke-linecap="round" stroke-linejoin="round"/>
<path d="M11.641 19.9945C11.0381 19.9945 10.557 19.3919 10.6245 18.6796C10.6764 18.1327 11.0596 17.6941 11.5335 17.638C11.774 17.6095 11.9996 17.6779 12.1852 17.8129V13.4908H9.40262C9.25844 13.4908 9.16293 13.6576 9.21421 13.8127C9.27763 14.0045 9.30697 14.2157 9.29357 14.4367C9.24989 15.1559 8.74502 15.738 8.1223 15.7869C7.38503 15.8447 6.7714 15.171 6.7714 14.3318C6.7714 14.1483 6.80084 13.9728 6.85444 13.8112C6.90566 13.6567 6.80928 13.4908 6.66568 13.4908H5.5734C5.46113 13.4908 5.37012 13.5956 5.37012 13.7249V20.4524C5.37012 20.9553 5.72309 21.363 6.15853 21.363H12.1852V19.8132C12.0276 19.9279 11.8411 19.9945 11.641 19.9945Z" stroke="black" stroke-width="0.5" stroke-miterlimit="10" stroke-linecap="round" stroke-linejoin="round"/>
<path d="M19.0002 17.4492V13.491H16.9146C17.0918 13.1931 17.1957 12.8325 17.1958 12.4437C17.1958 11.4213 16.4639 10.5833 15.5788 10.592C14.6999 10.6006 13.9897 11.4263 13.9897 12.4437C13.9897 12.8325 14.0936 13.193 14.2708 13.491H12.1852V17.8131C11.9996 17.678 11.7741 17.6097 11.5335 17.6381C11.0596 17.6942 10.6765 18.1328 10.6246 18.6797C10.557 19.392 11.0381 19.9946 11.641 19.9946C11.8411 19.9946 12.0275 19.928 12.1852 19.8134V21.3631H18.2119C18.6473 21.3631 19.0003 20.9554 19.0003 20.4524V18.6973" stroke="black" stroke-width="0.5" stroke-miterlimit="10" stroke-linecap="round" stroke-linejoin="round"/>
<path d="M12.1852 5.85256V8.28927C11.9898 8.17134 11.7645 8.11037 11.5256 8.12664C10.8964 8.16942 10.3837 8.75608 10.3418 9.48257C10.2926 10.3334 10.8755 11.0411 11.6015 11.0411C11.8121 11.0411 12.0106 10.9812 12.1851 10.8759V13.4907H14.2707C14.0935 13.1929 13.9896 12.8323 13.9896 12.4435C13.9896 11.421 14.7215 10.5831 15.6066 10.5918C16.4855 10.6004 17.1958 11.4261 17.1958 12.4434C17.1958 12.8322 17.0919 13.1928 16.9146 13.4907H19.0002V6.52921C19.0002 6.02625 18.6473 5.61853 18.2118 5.61853H12.3885C12.2762 5.61849 12.1852 5.72328 12.1852 5.85256Z" stroke="black" stroke-width="0.5" stroke-miterlimit="10" stroke-linecap="round" stroke-linejoin="round"/>
<path d="M10.9053 6.48234V5.03938L12.6429 3.03857H16.5189" stroke="black" stroke-width="0.5" stroke-miterlimit="10" stroke-linecap="round" stroke-linejoin="round"/>
<path d="M17.2295 3.83465C17.6114 3.83465 17.921 3.47819 17.921 3.03848C17.921 2.59877 17.6114 2.24231 17.2295 2.24231C16.8477 2.24231 16.5381 2.59877 16.5381 3.03848C16.5381 3.47819 16.8477 3.83465 17.2295 3.83465Z" stroke="black" stroke-width="0.5" stroke-miterlimit="10" stroke-linecap="round" stroke-linejoin="round"/>
<path d="M9.67094 6.98263V2.22864" stroke="black" stroke-width="0.5" stroke-miterlimit="10" stroke-linecap="round" stroke-linejoin="round"/>
<path d="M9.67095 2.22942C10.0528 2.22942 10.3624 1.87297 10.3624 1.43325C10.3624 0.993542 10.0528 0.637085 9.67095 0.637085C9.28907 0.637085 8.97949 0.993542 8.97949 1.43325C8.97949 1.87297 9.28907 2.22942 9.67095 2.22942Z" stroke="black" stroke-width="0.5" stroke-miterlimit="10" stroke-linecap="round" stroke-linejoin="round"/>
<path d="M8.00803 14.0025V12.3344L7.1026 11.2919" stroke="black" stroke-width="0.5" stroke-miterlimit="10" stroke-linecap="round" stroke-linejoin="round"/>
<path d="M6.61333 11.525C6.99522 11.525 7.30479 11.1685 7.30479 10.7288C7.30479 10.2891 6.99522 9.93262 6.61333 9.93262C6.23145 9.93262 5.92188 10.2891 5.92188 10.7288C5.92188 11.1685 6.23145 11.525 6.61333 11.525Z" stroke="black" stroke-width="0.5" stroke-miterlimit="10" stroke-linecap="round" stroke-linejoin="round"/>
</svg>
