<svg width="19" height="20" viewBox="0 0 19 20" fill="none" xmlns="http://www.w3.org/2000/svg">
<g clip-path="url(#clip0_1_1939)">
<path fill-rule="evenodd" clip-rule="evenodd" d="M2.37996 10.5356C3.93312 10.5356 5.20016 9.26886 5.20016 7.7157C5.20016 6.16255 3.93312 4.89551 2.37996 4.89551C0.826808 4.89551 -0.440231 6.16255 -0.440231 7.7157C-0.440231 9.26886 0.826808 10.5356 2.37996 10.5356Z" fill="#837683"/>
<path fill-rule="evenodd" clip-rule="evenodd" d="M4.69856 7.7157C4.69856 8.2926 4.52536 8.82888 4.22826 9.27586C4.11366 9.44806 3.98044 9.60728 3.83153 9.75016C3.38123 10.1825 2.78768 10.4666 2.12917 10.5246C2.21176 10.5319 2.29536 10.5356 2.37997 10.5356C2.51688 10.5356 2.65178 10.5259 2.78366 10.5069C2.80065 10.5046 2.81764 10.5019 2.83429 10.4993C4.17595 10.2821 5.20016 9.11831 5.20016 7.7157C5.20016 6.15823 3.93744 4.89551 2.37997 4.89551C2.29536 4.89551 2.21176 4.89916 2.12917 4.9065C3.5694 5.03343 4.69856 6.2425 4.69856 7.7157Z" fill="#685E68"/>
<path fill-rule="evenodd" clip-rule="evenodd" d="M2.38027 7.98755C1.36436 7.98755 0.528026 8.75727 0.422073 9.7452C0.929373 10.2345 1.61952 10.5356 2.38027 10.5356C2.51718 10.5356 2.65208 10.5259 2.78396 10.5069C3.3835 10.421 3.92243 10.1462 4.33812 9.7452C4.23254 8.75694 3.39617 7.98755 2.38027 7.98755Z" fill="#8AC9FE"/>
<path fill-rule="evenodd" clip-rule="evenodd" d="M2.1291 8.00353C3.30122 8.1524 3.77354 9.0394 3.8821 10.1022C4.04632 9.99902 4.19887 9.87909 4.33743 9.7452C4.23185 8.75694 3.39547 7.98755 2.37957 7.98755C2.29463 7.98755 2.21103 7.99288 2.1291 8.00353Z" fill="#60B7FF"/>
<path fill-rule="evenodd" clip-rule="evenodd" d="M2.37955 7.83858C2.92813 7.83858 3.37549 7.39126 3.37549 6.84301C3.37549 6.29443 2.92813 5.84741 2.37955 5.84741C1.83131 5.84741 1.38399 6.29443 1.38399 6.84301C1.38399 7.39126 1.83131 7.83858 2.37955 7.83858Z" fill="#F6DCCD"/>
<path fill-rule="evenodd" clip-rule="evenodd" d="M3.12539 6.84301C3.12539 7.35061 2.74569 7.76932 2.25508 7.83094C2.29602 7.83593 2.33801 7.83858 2.38029 7.83858C2.93021 7.83858 3.37589 7.39293 3.37589 6.84301C3.37589 6.29309 2.93021 5.84741 2.38029 5.84741C2.33801 5.84741 2.29602 5.85009 2.25508 5.85509C2.74569 5.91671 3.12539 6.33538 3.12539 6.84301Z" fill="#F1CBBC"/>
<path fill-rule="evenodd" clip-rule="evenodd" d="M9.06236 1.50053C9.31152 1.55984 9.54936 1.65841 9.76722 1.79268L10.2252 1.58949L10.7648 2.12909L10.5616 2.5871C10.6959 2.80497 10.7945 3.04281 10.8538 3.29197L11.3211 3.47183V4.2353L10.8538 4.41517C10.7945 4.66399 10.6959 4.90183 10.5616 5.11969L10.7648 5.5777L10.2252 6.11764L9.76722 5.91412C9.54936 6.04838 9.31152 6.14729 9.06236 6.2066L8.88249 6.67359H8.11903L7.93916 6.20627C7.69034 6.14696 7.4525 6.04838 7.23463 5.91412L6.77662 6.11764L6.23669 5.5777L6.44021 5.12003C6.30594 4.90183 6.20703 4.66399 6.14772 4.41517L5.68073 4.2353V3.47183L6.14772 3.29197C6.20703 3.04281 6.30594 2.80497 6.44021 2.5871L6.23669 2.12909L6.77662 1.58949L7.2343 1.79268C7.4525 1.65841 7.69034 1.55984 7.93916 1.50053L8.11903 1.0332H8.88249L9.06236 1.50053Z" fill="#FFE177"/>
<path fill-rule="evenodd" clip-rule="evenodd" d="M10.0711 1.65778L10.225 1.58949L10.7646 2.12909L10.5614 2.5871C10.6957 2.80497 10.7942 3.04281 10.8535 3.29197L11.3209 3.47183V4.2353L10.8535 4.41517C10.7942 4.66399 10.6957 4.90183 10.5614 5.11969L10.7646 5.5777L10.225 6.11764L10.0711 6.04935L10.5428 5.5777L10.3392 5.11969C10.4735 4.90183 10.572 4.66399 10.6314 4.41517L11.0987 4.2353V3.47183L10.6314 3.29197C10.572 3.04281 10.4735 2.80497 10.3392 2.5871L10.5428 2.12909L10.0711 1.65778ZM6.70808 1.65778L6.77636 1.58949L7.23404 1.79268C7.20174 1.81068 7.16978 1.8293 7.13845 1.84897L6.70808 1.65778ZM9.0621 1.50053C9.31126 1.55984 9.5491 1.65841 9.76696 1.79268L9.64071 1.84897C9.42284 1.71474 9.08907 1.55984 8.83995 1.50053L8.66005 1.0332H8.88223L9.0621 1.50053ZM7.23438 5.91412L6.77636 6.11764L6.70808 6.04935L7.13845 5.85816C7.16978 5.87749 7.20174 5.89612 7.23438 5.91412ZM9.76696 5.91412C9.5491 6.04838 9.31126 6.14729 9.0621 6.2066L8.88223 6.67359H8.66005L8.83995 6.2066C9.08907 6.14729 9.42284 5.99239 9.64104 5.85816L9.76696 5.91412Z" fill="#FFD064"/>
<path fill-rule="evenodd" clip-rule="evenodd" d="M8.50078 2.52246C9.23593 2.52246 9.83182 3.11835 9.83182 3.8535C9.83182 4.58836 9.23593 5.18425 8.50078 5.18425C7.76593 5.18425 7.17004 4.58836 7.17004 3.8535C7.17004 3.11835 7.76593 2.52246 8.50078 2.52246Z" fill="#ECEFF1"/>
<path fill-rule="evenodd" clip-rule="evenodd" d="M8.50078 2.52246C8.53107 2.52246 8.5611 2.52354 8.59109 2.5257C7.89815 2.57194 7.35013 3.14864 7.35013 3.8535C7.35013 4.55807 7.89815 5.13477 8.59109 5.18127C8.5611 5.18317 8.53107 5.18425 8.50078 5.18425C7.76593 5.18425 7.17004 4.58836 7.17004 3.8535C7.17004 3.11835 7.76593 2.52246 8.50078 2.52246Z" fill="#D1D1D6"/>
<path fill-rule="evenodd" clip-rule="evenodd" d="M0.794423 14.6072L3.74579 12.8975C4.29996 12.5764 4.86303 12.3487 5.47234 12.5462C6.15101 12.7668 7.25934 13.2391 8.38992 13.4428C8.80974 13.5789 9.07127 13.9987 8.95742 14.4248C8.84268 14.8509 8.48331 15.0706 7.97449 14.9923L8.37032 15.0555C8.82308 15.1284 9.23847 15.0661 9.6352 14.8349L12.4727 13.1822C14.6787 11.8977 15.0025 13.8742 14.2695 14.3261L9.11929 17.4972C8.64608 17.788 8.12749 17.8565 7.59024 17.7124L3.85521 16.7117L2.47115 17.5105C2.20519 17.6635 1.8636 17.5719 1.70974 17.3059L0.590751 15.3686C0.437745 15.1026 0.529355 14.7611 0.794423 14.6072Z" fill="#F6DCCD"/>
<path fill-rule="evenodd" clip-rule="evenodd" d="M0.794423 14.6072L3.74579 12.8975C4.29996 12.5764 4.86303 12.3487 5.47234 12.5462C5.83524 12.6636 6.32182 12.8539 6.86798 13.0363L1.15024 16.3381L0.590751 15.3686C0.437745 15.1026 0.529355 14.7611 0.794423 14.6072Z" fill="#F1CBBC"/>
<path fill-rule="evenodd" clip-rule="evenodd" d="M1.1369 13.7568L3.47808 17.893C3.59103 18.0932 3.51988 18.3493 3.32064 18.4623L2.52364 18.9133C2.32437 19.0263 2.0682 18.9551 1.95435 18.7549L-0.385926 14.6188C-0.499777 14.4186 -0.428621 14.1625 -0.228487 14.0495L0.567613 13.5985C0.767746 13.4855 1.02391 13.5567 1.1369 13.7568Z" fill="#D1D1D6"/>
<path fill-rule="evenodd" clip-rule="evenodd" d="M2.36912 16.5988L2.78276 17.3309L3.19279 18.0549C3.30578 18.2542 3.23548 18.5095 3.03624 18.6233L3.32091 18.4623C3.52015 18.3494 3.5913 18.0932 3.47835 17.893L3.06739 17.1663L2.24193 15.7075L1.41558 14.2478L1.13718 13.7568C1.03931 13.5834 0.833846 13.5069 0.650589 13.5629L1.13181 14.4133L1.95727 15.8721L2.36823 16.5979L2.36912 16.5988Z" fill="#B1B1B5"/>
<path fill-rule="evenodd" clip-rule="evenodd" d="M14.6222 4.89771C16.1788 4.89771 17.4406 6.15953 17.4406 7.71604C17.4406 9.27255 16.1788 10.5344 14.6222 10.5344C13.0657 10.5344 11.8039 9.27255 11.8039 7.71604C11.8039 6.15953 13.0657 4.89771 14.6222 4.89771Z" fill="#FFC338"/>
<path fill-rule="evenodd" clip-rule="evenodd" d="M14.6222 4.89771C16.1788 4.89771 17.4406 6.15953 17.4406 7.71604C17.4406 9.27259 16.1788 10.5344 14.6222 10.5344C14.541 10.5344 14.4605 10.5307 14.3809 10.524C15.8245 10.4016 16.958 9.19126 16.958 7.71604C16.958 6.24078 15.8245 5.03052 14.3809 4.9081C14.4605 4.90136 14.541 4.89771 14.6222 4.89771Z" fill="#F5B829"/>
<path fill-rule="evenodd" clip-rule="evenodd" d="M3.5068 17.3393L3.7243 17.7237C3.72445 17.7239 3.7246 17.7241 3.72475 17.7244C3.9175 18.0673 3.79523 18.5049 3.45431 18.6974L2.66086 19.1471C2.66056 19.1473 2.66026 19.1475 2.65996 19.1476C2.31707 19.3404 1.87951 19.2181 1.68683 18.8771L-0.64641 14.7542C-0.840955 14.411 -0.718685 13.9731 -0.377281 13.7802L0.417068 13.3305L0.417329 13.3304C0.758547 13.1377 1.19625 13.2588 1.39058 13.6L1.39095 13.6007L1.56594 13.9098L3.62904 12.7154C4.25801 12.3516 4.90092 12.1154 5.59174 12.3397C6.25923 12.5561 7.34894 13.0228 8.46111 13.2238C8.47426 13.2262 8.48723 13.2294 8.49993 13.2335C9.07019 13.4182 9.41655 13.995 9.26082 14.574C9.24045 14.65 9.21444 14.7213 9.18304 14.7878C9.29041 14.7543 9.39569 14.7078 9.49937 14.6474L12.3285 12.9997C13.3592 12.3993 14.0466 12.4669 14.4355 12.7278C14.7723 12.9537 14.9286 13.3393 14.9186 13.718C14.9084 14.1007 14.7256 14.4661 14.4254 14.6509L9.29175 17.8117C8.7476 18.1475 8.1516 18.2264 7.53413 18.0617L7.5338 18.0616L3.92913 17.0955L3.5068 17.3393ZM3.20519 18.0166L0.872547 13.8948C0.840098 13.838 0.767339 13.8173 0.710488 13.8494L-0.0836374 14.299L-0.0838982 14.2991C-0.140377 14.331 -0.16001 14.4036 -0.127859 14.4603L-0.127747 14.4605L2.2056 18.5835L2.20571 18.5837C2.23779 18.6404 2.31066 18.6601 2.36766 18.6281L3.16037 18.1788L3.16078 18.1786C3.21752 18.1466 3.23719 18.0737 3.20519 18.0166ZM3.21324 16.8206L3.73797 16.5176C3.80645 16.478 3.88781 16.4673 3.96415 16.4878L7.68785 17.4857C8.14124 17.6067 8.57917 17.551 8.97866 17.3044L8.97895 17.3042L14.1128 14.1434C14.2518 14.0578 14.318 13.8794 14.3227 13.7022C14.3283 13.4923 14.2407 13.27 14.0188 13.1776C13.7269 13.0562 13.2791 13.1358 12.6286 13.5147L9.79949 15.1624C9.3423 15.4289 8.86317 15.5026 8.34096 15.4195C8.34063 15.4194 8.34029 15.4194 8.33996 15.4193L7.98924 15.3623C7.98909 15.3623 6.74511 15.0358 6.08771 14.8592C5.92886 14.8165 5.83453 14.6528 5.87722 14.494C5.91992 14.3351 6.08354 14.2408 6.24239 14.2835C6.88363 14.4558 7.46164 14.6448 8.08409 14.7735C8.39007 14.8071 8.61479 14.6816 8.68516 14.4194L8.6852 14.4193C8.75643 14.1545 8.59024 13.8982 8.33321 13.8064C7.19891 13.5979 6.08872 13.1275 5.40777 12.9067L5.40766 12.9066C4.88378 12.7365 4.40446 12.9555 3.92749 13.2313L1.85954 14.4286L3.21324 16.8206ZM0.589484 14.3201C0.769537 14.2933 0.936774 14.4177 0.963561 14.5977C0.989304 14.7778 0.864947 14.9461 0.684857 14.9718C0.504804 14.9986 0.337566 14.8732 0.31078 14.6931C0.285037 14.5131 0.409394 14.3458 0.589484 14.3201ZM2.37951 4.62245C4.10214 4.62245 5.49823 6.01857 5.49823 7.74117C5.49823 9.4638 4.10214 10.8599 2.37951 10.8599C0.656916 10.8599 -0.739212 9.4638 -0.739212 7.74117C-0.739212 6.01857 0.656916 4.62245 2.37951 4.62245ZM4.48255 9.13502C4.74769 8.73569 4.90215 8.25651 4.90215 7.74117C4.90215 6.34783 3.77288 5.21853 2.37951 5.21853C0.986137 5.21853 -0.143134 6.34783 -0.143134 7.74117C-0.143134 8.25651 0.0113254 8.73569 0.276469 9.13502C0.495416 8.5927 0.917849 8.15436 1.44903 7.91477C1.22412 7.68167 1.08535 7.365 1.08535 7.01734C1.08535 6.30533 1.66749 5.72314 2.37951 5.72314C3.09156 5.72314 3.67371 6.30533 3.67371 7.01734C3.67371 7.365 3.53493 7.68167 3.30999 7.91477C3.8412 8.15436 4.26364 8.5927 4.48255 9.13502ZM0.739957 9.65853C1.18087 10.0359 1.75355 10.2638 2.37951 10.2638C3.0055 10.2638 3.57815 10.0359 4.0191 9.65853C3.86807 8.89074 3.19118 8.31154 2.37951 8.31154C1.56787 8.31154 0.890988 8.89074 0.739957 9.65853ZM2.37951 7.71546C2.76361 7.71546 3.07763 7.4014 3.07763 7.01734C3.07763 6.63324 2.76361 6.31922 2.37951 6.31922C1.99545 6.31922 1.68143 6.63324 1.68143 7.01734C1.68143 7.4014 1.99545 7.71546 2.37951 7.71546ZM9.28564 1.27863C9.45809 1.33064 9.62484 1.39971 9.78366 1.48503L10.1033 1.34293C10.216 1.29279 10.3479 1.3173 10.4351 1.40452L10.9746 1.94397C11.0617 2.03107 11.0862 2.16277 11.0364 2.27539C11.0364 2.27539 10.8947 2.59518 10.8947 2.59518C10.9802 2.75426 11.0494 2.92131 11.1014 3.09436L11.4272 3.2198C11.5423 3.2641 11.6182 3.37463 11.6182 3.49794V4.261C11.6182 4.38431 11.5423 4.49489 11.4272 4.53914C11.4272 4.53914 11.1012 4.66466 11.1012 4.66462C11.0491 4.83711 10.9797 5.00386 10.8946 5.16272L11.0364 5.48277C11.0862 5.5954 11.0617 5.72713 10.9746 5.81423L10.4351 6.35368C10.348 6.44078 10.2163 6.46533 10.1037 6.41545L9.78407 6.27384C9.62533 6.35923 9.45824 6.42834 9.28552 6.48035L9.16009 6.80633C9.11579 6.92141 9.00522 6.99733 8.88191 6.99733H8.11885C7.99557 6.99733 7.885 6.92141 7.8407 6.80633L7.71527 6.48039C7.54229 6.42827 7.37535 6.35886 7.21639 6.27366L6.89633 6.41545C6.78367 6.46533 6.65198 6.44078 6.56487 6.35368L6.02542 5.81423C5.93821 5.72702 5.91373 5.5951 5.96384 5.4824C5.96384 5.4824 6.10589 5.1629 6.10589 5.16294C6.02058 5.00431 5.95143 4.83733 5.89913 4.66477L5.57278 4.53914C5.4577 4.49489 5.38177 4.38431 5.38177 4.261V3.49794C5.38177 3.37463 5.4577 3.2641 5.57278 3.2198C5.57278 3.2198 5.89905 3.09421 5.89902 3.09425C5.95136 2.92128 6.02054 2.75437 6.10593 2.59541L5.96384 2.2758C5.91373 2.1631 5.93821 2.03118 6.02542 1.94397L6.56487 1.40452C6.65209 1.3173 6.78401 1.29279 6.8967 1.34293C6.8967 1.34293 7.21635 1.48503 7.21631 1.48506C7.37524 1.39967 7.54207 1.33057 7.71463 1.27856L7.84082 0.951609C7.88515 0.836678 7.99565 0.760864 8.11885 0.760864H8.88191C9.00529 0.760864 9.1159 0.836864 9.16012 0.951982L9.28564 1.27863ZM8.78351 1.63378L8.67715 1.35694H8.32331L8.21631 1.63416C8.18095 1.7258 8.10272 1.79413 8.0072 1.81685C7.78911 1.86868 7.58111 1.95485 7.38996 2.07261C7.30621 2.12424 7.20242 2.13117 7.11252 2.09124L6.8416 1.97075L6.59166 2.2207L6.71214 2.49162C6.75212 2.58147 6.74515 2.6853 6.69355 2.76905C6.5756 2.96043 6.48939 3.16869 6.43683 3.38767C6.41395 3.48304 6.34559 3.56105 6.25409 3.59626L5.97785 3.70259V4.05636L6.25409 4.16268C6.34555 4.19789 6.41384 4.27579 6.43679 4.37105C6.48932 4.58929 6.57542 4.79814 6.69329 4.98874C6.74511 5.07256 6.75215 5.17654 6.71214 5.26658L6.59166 5.5375L6.84183 5.78763L7.11289 5.66756C7.20245 5.62788 7.3058 5.63477 7.38932 5.68593C7.58067 5.80317 7.78877 5.89019 8.00776 5.94205C8.10346 5.96474 8.18185 6.03322 8.2172 6.12501L8.32349 6.40126H8.67726L8.78359 6.12501C8.81891 6.03329 8.89718 5.96485 8.99281 5.94213C9.21075 5.89031 9.41931 5.80428 9.60964 5.68656C9.69332 5.63485 9.79715 5.62773 9.88712 5.66756L10.1582 5.78763L10.4085 5.53728L10.2885 5.26621C10.2488 5.17665 10.2557 5.07331 10.3068 4.98978C10.4241 4.7984 10.5111 4.59026 10.563 4.37191C10.5858 4.27627 10.6542 4.198 10.7459 4.16268L11.0222 4.05636V3.70259L10.7459 3.59626C10.6541 3.56094 10.5856 3.48256 10.563 3.38685C10.5112 3.16813 10.425 2.96017 10.3072 2.76905C10.2557 2.68542 10.2487 2.58177 10.2885 2.49199L10.4085 2.22088L10.1584 1.97075L9.88749 2.09124C9.79759 2.13117 9.6938 2.12424 9.61005 2.07261C9.4189 1.95485 9.2109 1.86868 8.99281 1.81685C8.89714 1.79409 8.81879 1.72562 8.78351 1.63378ZM8.5 2.25009C9.40005 2.25009 10.1298 2.97906 10.1298 3.8791C10.1298 4.77907 9.40001 5.50885 8.5 5.50885C7.59996 5.50885 6.87103 4.77914 6.87103 3.8791C6.87103 2.97902 7.59993 2.25009 8.5 2.25009ZM8.5 2.84617C7.9293 2.84617 7.46711 3.30835 7.46711 3.8791C7.46711 4.44985 7.92922 4.91277 8.5 4.91277C9.07082 4.91277 9.53368 4.44992 9.53368 3.8791C9.53368 3.30832 9.07079 2.84617 8.5 2.84617ZM14.621 10.8599C12.9036 10.8599 11.5028 9.4591 11.5028 7.74169C11.5028 6.02424 12.9036 4.62345 14.621 4.62345C16.3384 4.62345 17.7392 6.02424 17.7392 7.74169C17.7392 9.4591 16.3384 10.8599 14.621 10.8599ZM14.621 10.2638C16.0101 10.2638 17.1431 9.13081 17.1431 7.74169C17.1431 6.35256 16.0101 5.21953 14.621 5.21953C13.2319 5.21953 12.0988 6.35256 12.0988 7.74169C12.0988 9.13081 13.2319 10.2638 14.621 10.2638ZM14.3229 6.09469V5.95762C14.3229 5.79314 14.4565 5.65959 14.621 5.65959C14.7855 5.65959 14.919 5.79314 14.919 5.95762V6.09133C15.256 6.16905 15.566 6.38729 15.7266 6.77012C15.7903 6.92178 15.7188 7.09662 15.5671 7.16025C15.4154 7.22392 15.2406 7.15246 15.177 7.00076C15.0342 6.66051 14.6523 6.5929 14.3785 6.7006C14.2249 6.76106 14.0996 6.88341 14.1086 7.06376L14.1086 7.06451C14.1152 7.20354 14.2071 7.28163 14.3145 7.33412C14.4245 7.3878 14.5517 7.41761 14.6717 7.43717L14.6722 7.43724C15.1843 7.52155 15.7432 7.7576 15.8164 8.36627C15.8879 8.95661 15.4184 9.30211 14.919 9.398V9.52668C14.919 9.69116 14.7855 9.82472 14.621 9.82472C14.4565 9.82472 14.3229 9.69116 14.3229 9.52668V9.39361C13.9013 9.30315 13.5395 9.02285 13.4275 8.57288C13.3878 8.41324 13.4851 8.25141 13.6447 8.21166C13.8044 8.17194 13.9662 8.26929 14.0059 8.42889C14.0774 8.7159 14.3697 8.83627 14.6503 8.82934L14.651 8.82931C14.8037 8.82588 14.9738 8.78859 15.099 8.70227C15.1823 8.64478 15.2393 8.55895 15.2247 8.43783L15.2246 8.43754C15.2054 8.27745 15.0949 8.19076 14.9682 8.1332C14.8454 8.07743 14.7059 8.04688 14.5759 8.0255C14.0738 7.94372 13.5413 7.688 13.5132 7.09267C13.4908 6.63574 13.7708 6.2991 14.1603 6.14591C14.2128 6.12523 14.2672 6.10813 14.3229 6.09469ZM8.79804 10.0846C8.79804 10.2491 8.66448 10.3827 8.5 10.3827C8.33552 10.3827 8.20197 10.2491 8.20197 10.0846V8.05735C8.20197 7.89287 8.33552 7.75931 8.5 7.75931C8.66448 7.75931 8.79804 7.89287 8.79804 8.05735V10.0846ZM9.58315 11.1938C9.45418 11.2958 9.26656 11.2739 9.16452 11.145C9.06244 11.0159 9.08431 10.8284 9.21332 10.7263L10.9554 9.34797C11.0843 9.24593 11.272 9.2678 11.374 9.39677C11.4761 9.52579 11.4542 9.71337 11.3252 9.81544L9.58315 11.1938ZM7.78668 10.7263C7.9157 10.8284 7.93757 11.0159 7.83549 11.145C7.73345 11.2739 7.54583 11.2958 7.41686 11.1938L5.67482 9.81544C5.5458 9.71337 5.52393 9.52579 5.62601 9.39677C5.72805 9.2678 5.91567 9.24593 6.04465 9.34797L7.78668 10.7263Z" fill="black"/>
</g>
<defs>
<clipPath id="clip0_1_1939">
<rect width="19" height="19" fill="white" transform="translate(0 0.5)"/>
</clipPath>
</defs>
</svg>
