<svg width="83" height="18" viewBox="0 0 83 18" fill="none" xmlns="http://www.w3.org/2000/svg">
<path d="M7.54894 3.01934C7.8483 2.09802 9.1517 2.09803 9.45106 3.01934L10.1839 5.27466C10.3177 5.68668 10.7017 5.96564 11.1349 5.96564L13.5063 5.96564C14.475 5.96564 14.8778 7.20526 14.0941 7.77466L12.1756 9.16852C11.8251 9.42317 11.6784 9.87453 11.8123 10.2866L12.5451 12.5419C12.8445 13.4632 11.79 14.2293 11.0063 13.6599L9.08778 12.266C8.7373 12.0114 8.2627 12.0114 7.91221 12.266L5.99372 13.6599C5.21001 14.2293 4.15553 13.4632 4.45488 12.5419L5.18768 10.2866C5.32155 9.87453 5.1749 9.42317 4.82441 9.16852L2.90592 7.77466C2.1222 7.20526 2.52498 5.96564 3.4937 5.96564L5.86509 5.96564C6.29832 5.96564 6.68227 5.68668 6.81614 5.27466L7.54894 3.01934Z" fill="#4988FF"/>
<path d="M23.8883 3.28589C24.1733 2.3356 25.519 2.3356 25.804 3.28589L26.394 5.25292C26.5208 5.67594 26.9102 5.96564 27.3518 5.96564H29.4209C30.3702 5.96564 30.7853 7.16433 30.0394 7.75143L28.2314 9.17454C27.9086 9.42859 27.774 9.85418 27.892 10.2476L28.5496 12.4401C28.8302 13.3757 27.7408 14.1173 26.9733 13.5132L25.4646 12.3258C25.1018 12.0402 24.5905 12.0402 24.2277 12.3258L22.719 13.5132C21.9515 14.1173 20.8621 13.3757 21.1427 12.4401L21.8003 10.2476C21.9183 9.85418 21.7837 9.42859 21.4609 9.17454L19.6529 7.75144C18.907 7.16433 19.3221 5.96564 20.2714 5.96564H22.3405C22.7821 5.96564 23.1715 5.67594 23.2983 5.25292L23.8883 3.28589Z" fill="#4988FF"/>
<path d="M40.2413 3.01934C40.5407 2.09802 41.8441 2.09803 42.1434 3.01934L42.8762 5.27466C43.0101 5.68668 43.3941 5.96564 43.8273 5.96564L46.1987 5.96564C47.1674 5.96564 47.5702 7.20526 46.7865 7.77466L44.868 9.16852C44.5175 9.42317 44.3708 9.87453 44.5047 10.2866L45.2375 12.5419C45.5369 13.4632 44.4824 14.2293 43.6987 13.6599L41.7802 12.266C41.4297 12.0114 40.9551 12.0114 40.6046 12.266L38.6861 13.6599C37.9024 14.2293 36.8479 13.4632 37.1473 12.5419L37.8801 10.2866C38.0139 9.87453 37.8673 9.42317 37.5168 9.16852L35.5983 7.77466C34.8146 7.20526 35.2174 5.96564 36.1861 5.96564L38.5575 5.96564C38.9907 5.96564 39.3747 5.68668 39.5085 5.27466L40.2413 3.01934Z" fill="#4988FF"/>
<path d="M57.2413 3.01934C57.5407 2.09802 58.8441 2.09803 59.1434 3.01934L59.8762 5.27466C60.0101 5.68668 60.3941 5.96564 60.8273 5.96564L63.1987 5.96564C64.1674 5.96564 64.5702 7.20526 63.7865 7.77466L61.868 9.16852C61.5175 9.42317 61.3708 9.87453 61.5047 10.2866L62.2375 12.5419C62.5369 13.4632 61.4824 14.2293 60.6987 13.6599L58.7802 12.266C58.4297 12.0114 57.9551 12.0114 57.6046 12.266L55.6861 13.6599C54.9024 14.2293 53.8479 13.4632 54.1473 12.5419L54.8801 10.2866C55.0139 9.87453 54.8673 9.42317 54.5168 9.16852L52.5983 7.77466C51.8146 7.20526 52.2174 5.96564 53.1861 5.96564L55.5575 5.96564C55.9907 5.96564 56.3747 5.68668 56.5085 5.27466L57.2413 3.01934Z" fill="#4988FF"/>
<path d="M73.5807 3.28589C73.8657 2.3356 75.2114 2.3356 75.4964 3.28589L76.0863 5.25292C76.2132 5.67594 76.6026 5.96564 77.0442 5.96564H79.1133C80.0626 5.96564 80.4777 7.16433 79.7318 7.75143L77.9237 9.17454C77.601 9.42859 77.4664 9.85418 77.5844 10.2476L78.242 12.4401C78.5226 13.3757 77.4332 14.1173 76.6656 13.5132L75.157 12.3258C74.7942 12.0402 74.2829 12.0402 73.92 12.3258L72.4114 13.5132C71.6439 14.1173 70.5545 13.3757 70.8351 12.4401L71.4927 10.2476C71.6107 9.85418 71.4761 9.42859 71.1533 9.17454L69.3453 7.75144C68.5993 7.16433 69.0145 5.96564 69.9638 5.96564H72.0329C72.4745 5.96564 72.8639 5.67594 72.9907 5.25292L73.5807 3.28589Z" fill="#CDCDCD"/>
</svg>
