<svg width="13" height="12" viewBox="0 0 13 12" fill="none" xmlns="http://www.w3.org/2000/svg">
<path d="M5.24133 1.01934C5.54068 0.0980244 6.84409 0.0980251 7.14344 1.01934L7.87624 3.27466C8.01011 3.68668 8.39407 3.96564 8.82729 3.96564L11.1987 3.96564C12.1674 3.96564 12.5702 5.20526 11.7865 5.77466L9.86797 7.16852C9.51749 7.42317 9.37083 7.87453 9.5047 8.28656L10.2375 10.5419C10.5369 11.4632 9.48237 12.2293 8.69866 11.6599L6.78017 10.266C6.42968 10.0114 5.95508 10.0114 5.6046 10.266L3.68611 11.6599C2.90239 12.2293 1.84791 11.4632 2.14726 10.5419L2.88006 8.28656C3.01394 7.87453 2.86728 7.42317 2.51679 7.16852L0.5983 5.77466C-0.185414 5.20526 0.217362 3.96564 1.18608 3.96564L3.55747 3.96564C3.9907 3.96564 4.37465 3.68668 4.50853 3.27466L5.24133 1.01934Z" fill="#4988FF"/>
</svg>
